<?xml version="1.0" encoding="UTF-8" standalone="no"?>
<!DOCTYPE svg PUBLIC "-//W3C//DTD SVG 1.1//EN"
 "http://www.w3.org/Graphics/SVG/1.1/DTD/svg11.dtd">
<!-- Generated by graphviz version 12.2.0 (20241103.1931)
 -->
<!-- Title: dependency&#45;cruiser output Pages: 1 -->
<svg width="1495pt" height="654pt"
 viewBox="0.00 0.00 1495.25 654.00" xmlns="http://www.w3.org/2000/svg" xmlns:xlink="http://www.w3.org/1999/xlink">
<g id="graph0" class="graph" transform="scale(1 1) rotate(0) translate(4 650)">
<title>dependency&#45;cruiser output</title>
<polygon fill="white" stroke="none" points="-4,4 -4,-650 1491.25,-650 1491.25,4 -4,4"/>
<g id="clust1" class="cluster">
<title>cluster_src</title>
<path fill="#ffffff" stroke="black" stroke-width="2" d="M20,-8C20,-8 1467.25,-8 1467.25,-8 1473.25,-8 1479.25,-14 1479.25,-20 1479.25,-20 1479.25,-626 1479.25,-626 1479.25,-632 1473.25,-638 1467.25,-638 1467.25,-638 20,-638 20,-638 14,-638 8,-632 8,-626 8,-626 8,-20 8,-20 8,-14 14,-8 20,-8"/>
<text text-anchor="middle" x="743.62" y="-625.45" font-family="Helvetica,sans-Serif" font-weight="bold" font-size="9.00">src</text>
</g>
<g id="clust2" class="cluster">
<title>cluster_src/assets</title>
<path fill="#ffffff" stroke="black" stroke-width="2" d="M537.5,-354C537.5,-354 642.25,-354 642.25,-354 648.25,-354 654.25,-360 654.25,-366 654.25,-366 654.25,-424 654.25,-424 654.25,-430 648.25,-436 642.25,-436 642.25,-436 537.5,-436 537.5,-436 531.5,-436 525.5,-430 525.5,-424 525.5,-424 525.5,-366 525.5,-366 525.5,-360 531.5,-354 537.5,-354"/>
<text text-anchor="middle" x="589.88" y="-423.45" font-family="Helvetica,sans-Serif" font-weight="bold" font-size="9.00">assets</text>
</g>
<g id="clust3" class="cluster">
<title>cluster_src/atoms</title>
<path fill="#ffffff" stroke="black" stroke-width="2" d="M1160.5,-162C1160.5,-162 1314.25,-162 1314.25,-162 1320.25,-162 1326.25,-168 1326.25,-174 1326.25,-174 1326.25,-322 1326.25,-322 1326.25,-328 1320.25,-334 1314.25,-334 1314.25,-334 1160.5,-334 1160.5,-334 1154.5,-334 1148.5,-328 1148.5,-322 1148.5,-322 1148.5,-174 1148.5,-174 1148.5,-168 1154.5,-162 1160.5,-162"/>
<text text-anchor="middle" x="1237.38" y="-321.45" font-family="Helvetica,sans-Serif" font-weight="bold" font-size="9.00">atoms</text>
</g>
<g id="clust4" class="cluster">
<title>cluster_src/components</title>
<path fill="#ffffff" stroke="black" stroke-width="2" d="M100.5,-16C100.5,-16 630.62,-16 630.62,-16 636.62,-16 642.62,-22 642.62,-28 642.62,-28 642.62,-334 642.62,-334 642.62,-340 636.62,-346 630.62,-346 630.62,-346 100.5,-346 100.5,-346 94.5,-346 88.5,-340 88.5,-334 88.5,-334 88.5,-28 88.5,-28 88.5,-22 94.5,-16 100.5,-16"/>
<text text-anchor="middle" x="365.56" y="-333.45" font-family="Helvetica,sans-Serif" font-weight="bold" font-size="9.00">components</text>
</g>
<g id="clust5" class="cluster">
<title>cluster_src/components/paper</title>
<path fill="#ffffff" stroke="black" stroke-width="2" d="M263.12,-50C263.12,-50 483.5,-50 483.5,-50 489.5,-50 495.5,-56 495.5,-62 495.5,-62 495.5,-150 495.5,-150 495.5,-156 489.5,-162 483.5,-162 483.5,-162 263.12,-162 263.12,-162 257.12,-162 251.12,-156 251.12,-150 251.12,-150 251.12,-62 251.12,-62 251.12,-56 257.12,-50 263.12,-50"/>
<text text-anchor="middle" x="373.31" y="-149.45" font-family="Helvetica,sans-Serif" font-weight="bold" font-size="9.00">paper</text>
</g>
<g id="clust6" class="cluster">
<title>cluster_src/components/shoppingCart</title>
<path fill="#ffffff" stroke="black" stroke-width="2" d="M250.75,-264C250.75,-264 351,-264 351,-264 357,-264 363,-270 363,-276 363,-276 363,-304 363,-304 363,-310 357,-316 351,-316 351,-316 250.75,-316 250.75,-316 244.75,-316 238.75,-310 238.75,-304 238.75,-304 238.75,-276 238.75,-276 238.75,-270 244.75,-264 250.75,-264"/>
<text text-anchor="middle" x="300.88" y="-303.45" font-family="Helvetica,sans-Serif" font-weight="bold" font-size="9.00">shoppingCart</text>
</g>
<g id="clust7" class="cluster">
<title>cluster_src/helpers</title>
<path fill="#ffffff" stroke="black" stroke-width="2" d="M926.5,-120C926.5,-120 1128.5,-120 1128.5,-120 1134.5,-120 1140.5,-126 1140.5,-132 1140.5,-132 1140.5,-190 1140.5,-190 1140.5,-196 1134.5,-202 1128.5,-202 1128.5,-202 926.5,-202 926.5,-202 920.5,-202 914.5,-196 914.5,-190 914.5,-190 914.5,-132 914.5,-132 914.5,-126 920.5,-120 926.5,-120"/>
<text text-anchor="middle" x="1027.5" y="-189.45" font-family="Helvetica,sans-Serif" font-weight="bold" font-size="9.00">helpers</text>
</g>
<g id="clust8" class="cluster">
<title>cluster_src/hooks</title>
<path fill="#ffffff" stroke="black" stroke-width="2" d="M674.25,-176C674.25,-176 894.5,-176 894.5,-176 900.5,-176 906.5,-182 906.5,-188 906.5,-188 906.5,-216 906.5,-216 906.5,-222 900.5,-228 894.5,-228 894.5,-228 674.25,-228 674.25,-228 668.25,-228 662.25,-222 662.25,-216 662.25,-216 662.25,-188 662.25,-188 662.25,-182 668.25,-176 674.25,-176"/>
<text text-anchor="middle" x="784.38" y="-215.45" font-family="Helvetica,sans-Serif" font-weight="bold" font-size="9.00">hooks</text>
</g>
<g id="clust9" class="cluster">
<title>cluster_src/models</title>
<path fill="#ffffff" stroke="black" stroke-width="2" d="M1346.25,-192C1346.25,-192 1459.25,-192 1459.25,-192 1465.25,-192 1471.25,-198 1471.25,-204 1471.25,-204 1471.25,-232 1471.25,-232 1471.25,-238 1465.25,-244 1459.25,-244 1459.25,-244 1346.25,-244 1346.25,-244 1340.25,-244 1334.25,-238 1334.25,-232 1334.25,-232 1334.25,-204 1334.25,-204 1334.25,-198 1340.25,-192 1346.25,-192"/>
<text text-anchor="middle" x="1402.75" y="-231.45" font-family="Helvetica,sans-Serif" font-weight="bold" font-size="9.00">models</text>
</g>
<g id="clust10" class="cluster">
<title>cluster_src/pages</title>
<path fill="#ffffff" stroke="black" stroke-width="2" d="M90,-380C90,-380 218.75,-380 218.75,-380 224.75,-380 230.75,-386 230.75,-392 230.75,-392 230.75,-600 230.75,-600 230.75,-606 224.75,-612 218.75,-612 218.75,-612 90,-612 90,-612 84,-612 78,-606 78,-600 78,-600 78,-392 78,-392 78,-386 84,-380 90,-380"/>
<text text-anchor="middle" x="154.38" y="-599.45" font-family="Helvetica,sans-Serif" font-weight="bold" font-size="9.00">pages</text>
</g>
<!-- src/assets/Account.png -->
<g id="node1" class="node">
<title>src/assets/Account.png</title>
<g id="a_node1"><a xlink:href="src/assets/Account.png" xlink:title="Account.png">
<path fill="#ffffcc" stroke="black" d="M617.46,-379.88C617.46,-379.88 562.29,-379.88 562.29,-379.88 559.33,-379.88 556.38,-376.92 556.38,-373.96 556.38,-373.96 556.38,-368.04 556.38,-368.04 556.38,-365.08 559.33,-362.12 562.29,-362.12 562.29,-362.12 617.46,-362.12 617.46,-362.12 620.42,-362.12 623.38,-365.08 623.38,-368.04 623.38,-368.04 623.38,-373.96 623.38,-373.96 623.38,-376.92 620.42,-379.88 617.46,-379.88"/>
<text text-anchor="start" x="564.38" y="-367.32" font-family="Helvetica,sans-Serif" font-size="9.00">Account.png</text>
</a>
</g>
</g>
<!-- src/assets/DunderMifflin&#45;Logo.png -->
<g id="node2" class="node">
<title>src/assets/DunderMifflin&#45;Logo.png</title>
<g id="a_node2"><a xlink:href="src/assets/DunderMifflin-Logo.png" xlink:title="DunderMifflin&#45;Logo.png">
<path fill="#ffffcc" stroke="black" d="M640.33,-409.88C640.33,-409.88 539.42,-409.88 539.42,-409.88 536.46,-409.88 533.5,-406.92 533.5,-403.96 533.5,-403.96 533.5,-398.04 533.5,-398.04 533.5,-395.08 536.46,-392.12 539.42,-392.12 539.42,-392.12 640.33,-392.12 640.33,-392.12 643.29,-392.12 646.25,-395.08 646.25,-398.04 646.25,-398.04 646.25,-403.96 646.25,-403.96 646.25,-406.92 643.29,-409.88 640.33,-409.88"/>
<text text-anchor="start" x="541.5" y="-397.32" font-family="Helvetica,sans-Serif" font-size="9.00">DunderMifflin&#45;Logo.png</text>
</a>
</g>
</g>
<!-- src/atoms/CustomerAtom.tsx -->
<g id="node3" class="node">
<title>src/atoms/CustomerAtom.tsx</title>
<g id="a_node3"><a xlink:href="src/atoms/CustomerAtom.tsx" xlink:title="CustomerAtom.tsx">
<path fill="#bbfeff" stroke="black" d="M1310.08,-247.88C1310.08,-247.88 1231.67,-247.88 1231.67,-247.88 1228.71,-247.88 1225.75,-244.92 1225.75,-241.96 1225.75,-241.96 1225.75,-236.04 1225.75,-236.04 1225.75,-233.08 1228.71,-230.12 1231.67,-230.12 1231.67,-230.12 1310.08,-230.12 1310.08,-230.12 1313.04,-230.12 1316,-233.08 1316,-236.04 1316,-236.04 1316,-241.96 1316,-241.96 1316,-244.92 1313.04,-247.88 1310.08,-247.88"/>
<text text-anchor="start" x="1233.75" y="-235.32" font-family="Helvetica,sans-Serif" font-size="9.00">CustomerAtom.tsx</text>
</a>
</g>
</g>
<!-- src/models/index.ts -->
<g id="node4" class="node">
<title>src/models/index.ts</title>
<g id="a_node4"><a xlink:href="src/models/index.ts" xlink:title="index.ts">
<path fill="#ddfeff" stroke="black" d="M1390.33,-217.88C1390.33,-217.88 1348.17,-217.88 1348.17,-217.88 1345.21,-217.88 1342.25,-214.92 1342.25,-211.96 1342.25,-211.96 1342.25,-206.04 1342.25,-206.04 1342.25,-203.08 1345.21,-200.12 1348.17,-200.12 1348.17,-200.12 1390.33,-200.12 1390.33,-200.12 1393.29,-200.12 1396.25,-203.08 1396.25,-206.04 1396.25,-206.04 1396.25,-211.96 1396.25,-211.96 1396.25,-214.92 1393.29,-217.88 1390.33,-217.88"/>
<text text-anchor="start" x="1353.5" y="-205.32" font-family="Helvetica,sans-Serif" font-size="9.00">index.ts</text>
</a>
</g>
</g>
<!-- src/atoms/CustomerAtom.tsx&#45;&gt;src/models/index.ts -->
<g id="edge1" class="edge">
<title>src/atoms/CustomerAtom.tsx&#45;&gt;src/models/index.ts</title>
<path fill="none" stroke="#000000" stroke-width="2" stroke-opacity="0.200000" d="M1307.09,-229.7C1313.49,-227.89 1320.09,-225.95 1326.25,-224 1328.98,-223.14 1331.8,-222.21 1334.63,-221.26"/>
<polygon fill="#000000" fill-opacity="0.200000" stroke="#000000" stroke-width="2" stroke-opacity="0.200000" points="1335.19,-223.28 1340.17,-219.34 1333.82,-219.31 1335.19,-223.28"/>
</g>
<!-- src/models/Api.ts -->
<g id="node29" class="node">
<title>src/models/Api.ts</title>
<g id="a_node29"><a xlink:href="src/models/Api.ts" xlink:title="Api.ts">
<path fill="#ddfeff" stroke="black" d="M1457.33,-217.88C1457.33,-217.88 1415.17,-217.88 1415.17,-217.88 1412.21,-217.88 1409.25,-214.92 1409.25,-211.96 1409.25,-211.96 1409.25,-206.04 1409.25,-206.04 1409.25,-203.08 1412.21,-200.12 1415.17,-200.12 1415.17,-200.12 1457.33,-200.12 1457.33,-200.12 1460.29,-200.12 1463.25,-203.08 1463.25,-206.04 1463.25,-206.04 1463.25,-211.96 1463.25,-211.96 1463.25,-214.92 1460.29,-217.88 1457.33,-217.88"/>
<text text-anchor="start" x="1425" y="-205.32" font-family="Helvetica,sans-Serif" font-size="9.00">Api.ts</text>
</a>
</g>
</g>
<!-- src/models/index.ts&#45;&gt;src/models/Api.ts -->
<g id="edge52" class="edge">
<title>src/models/index.ts&#45;&gt;src/models/Api.ts</title>
<path fill="none" stroke="#000000" stroke-width="2" stroke-opacity="0.200000" d="M1396.69,-209C1398.47,-209 1400.28,-209 1402.09,-209"/>
<polygon fill="#000000" fill-opacity="0.200000" stroke="#000000" stroke-width="2" stroke-opacity="0.200000" points="1408.05,-211.1 1402.05,-209 1408.05,-206.9 1408.05,-211.1"/>
</g>
<!-- src/atoms/OrderAtom.tsx -->
<g id="node5" class="node">
<title>src/atoms/OrderAtom.tsx</title>
<g id="a_node5"><a xlink:href="src/atoms/OrderAtom.tsx" xlink:title="OrderAtom.tsx">
<path fill="#bbfeff" stroke="black" d="M1301.83,-277.88C1301.83,-277.88 1239.92,-277.88 1239.92,-277.88 1236.96,-277.88 1234,-274.92 1234,-271.96 1234,-271.96 1234,-266.04 1234,-266.04 1234,-263.08 1236.96,-260.12 1239.92,-260.12 1239.92,-260.12 1301.83,-260.12 1301.83,-260.12 1304.79,-260.12 1307.75,-263.08 1307.75,-266.04 1307.75,-266.04 1307.75,-271.96 1307.75,-271.96 1307.75,-274.92 1304.79,-277.88 1301.83,-277.88"/>
<text text-anchor="start" x="1242" y="-265.32" font-family="Helvetica,sans-Serif" font-size="9.00">OrderAtom.tsx</text>
</a>
</g>
</g>
<!-- src/atoms/OrderAtom.tsx&#45;&gt;src/models/index.ts -->
<g id="edge2" class="edge">
<title>src/atoms/OrderAtom.tsx&#45;&gt;src/models/index.ts</title>
<path fill="none" stroke="#000000" stroke-width="2" stroke-opacity="0.200000" d="M1308.14,-262.01C1314.43,-259.97 1320.72,-257.35 1326.25,-254 1338.22,-246.75 1348.94,-235.14 1356.55,-225.53"/>
<polygon fill="#000000" fill-opacity="0.200000" stroke="#000000" stroke-width="2" stroke-opacity="0.200000" points="1358.19,-226.84 1360.13,-220.78 1354.84,-224.31 1358.19,-226.84"/>
</g>
<!-- src/atoms/OrderEntryAtom.tsx -->
<g id="node6" class="node">
<title>src/atoms/OrderEntryAtom.tsx</title>
<g id="a_node6"><a xlink:href="src/atoms/OrderEntryAtom.tsx" xlink:title="OrderEntryAtom.tsx">
<path fill="#bbfeff" stroke="black" d="M1312.33,-307.88C1312.33,-307.88 1229.42,-307.88 1229.42,-307.88 1226.46,-307.88 1223.5,-304.92 1223.5,-301.96 1223.5,-301.96 1223.5,-296.04 1223.5,-296.04 1223.5,-293.08 1226.46,-290.12 1229.42,-290.12 1229.42,-290.12 1312.33,-290.12 1312.33,-290.12 1315.29,-290.12 1318.25,-293.08 1318.25,-296.04 1318.25,-296.04 1318.25,-301.96 1318.25,-301.96 1318.25,-304.92 1315.29,-307.88 1312.33,-307.88"/>
<text text-anchor="start" x="1231.5" y="-295.32" font-family="Helvetica,sans-Serif" font-size="9.00">OrderEntryAtom.tsx</text>
</a>
</g>
</g>
<!-- src/atoms/OrderEntryAtom.tsx&#45;&gt;src/models/index.ts -->
<g id="edge3" class="edge">
<title>src/atoms/OrderEntryAtom.tsx&#45;&gt;src/models/index.ts</title>
<path fill="none" stroke="#000000" stroke-width="2" stroke-opacity="0.200000" d="M1316.91,-289.76C1320.23,-288.14 1323.4,-286.24 1326.25,-284 1344.98,-269.32 1356.67,-243.83 1362.83,-226.69"/>
<polygon fill="#000000" fill-opacity="0.200000" stroke="#000000" stroke-width="2" stroke-opacity="0.200000" points="1364.81,-227.37 1364.73,-221.02 1360.83,-226.04 1364.81,-227.37"/>
</g>
<!-- src/atoms/PaperAtom.tsx -->
<g id="node7" class="node">
<title>src/atoms/PaperAtom.tsx</title>
<g id="a_node7"><a xlink:href="src/atoms/PaperAtom.tsx" xlink:title="PaperAtom.tsx">
<path fill="#bbfeff" stroke="black" d="M1302.58,-187.88C1302.58,-187.88 1239.17,-187.88 1239.17,-187.88 1236.21,-187.88 1233.25,-184.92 1233.25,-181.96 1233.25,-181.96 1233.25,-176.04 1233.25,-176.04 1233.25,-173.08 1236.21,-170.12 1239.17,-170.12 1239.17,-170.12 1302.58,-170.12 1302.58,-170.12 1305.54,-170.12 1308.5,-173.08 1308.5,-176.04 1308.5,-176.04 1308.5,-181.96 1308.5,-181.96 1308.5,-184.92 1305.54,-187.88 1302.58,-187.88"/>
<text text-anchor="start" x="1241.25" y="-175.32" font-family="Helvetica,sans-Serif" font-size="9.00">PaperAtom.tsx</text>
</a>
</g>
</g>
<!-- src/atoms/PaperAtom.tsx&#45;&gt;src/models/index.ts -->
<g id="edge4" class="edge">
<title>src/atoms/PaperAtom.tsx&#45;&gt;src/models/index.ts</title>
<path fill="none" stroke="#000000" stroke-width="2" stroke-opacity="0.200000" d="M1307.09,-188.3C1313.49,-190.11 1320.09,-192.05 1326.25,-194 1328.98,-194.86 1331.8,-195.79 1334.63,-196.74"/>
<polygon fill="#000000" fill-opacity="0.200000" stroke="#000000" stroke-width="2" stroke-opacity="0.200000" points="1333.82,-198.69 1340.17,-198.66 1335.19,-194.72 1333.82,-198.69"/>
</g>
<!-- src/atoms/PropertyAtom.tsx -->
<g id="node8" class="node">
<title>src/atoms/PropertyAtom.tsx</title>
<g id="a_node8"><a xlink:href="src/atoms/PropertyAtom.tsx" xlink:title="PropertyAtom.tsx">
<path fill="#bbfeff" stroke="black" d="M1307.46,-217.88C1307.46,-217.88 1234.29,-217.88 1234.29,-217.88 1231.33,-217.88 1228.38,-214.92 1228.38,-211.96 1228.38,-211.96 1228.38,-206.04 1228.38,-206.04 1228.38,-203.08 1231.33,-200.12 1234.29,-200.12 1234.29,-200.12 1307.46,-200.12 1307.46,-200.12 1310.42,-200.12 1313.38,-203.08 1313.38,-206.04 1313.38,-206.04 1313.38,-211.96 1313.38,-211.96 1313.38,-214.92 1310.42,-217.88 1307.46,-217.88"/>
<text text-anchor="start" x="1236.38" y="-205.32" font-family="Helvetica,sans-Serif" font-size="9.00">PropertyAtom.tsx</text>
</a>
</g>
</g>
<!-- src/atoms/PropertyAtom.tsx&#45;&gt;src/models/index.ts -->
<g id="edge5" class="edge">
<title>src/atoms/PropertyAtom.tsx&#45;&gt;src/models/index.ts</title>
<path fill="none" stroke="#000000" stroke-width="2" stroke-opacity="0.200000" d="M1313.87,-209C1320.27,-209 1326.83,-209 1333.07,-209"/>
<polygon fill="#000000" fill-opacity="0.200000" stroke="#000000" stroke-width="2" stroke-opacity="0.200000" points="1332.91,-211.1 1338.91,-209 1332.91,-206.9 1332.91,-211.1"/>
</g>
<!-- src/atoms/import.ts -->
<g id="node9" class="node">
<title>src/atoms/import.ts</title>
<g id="a_node9"><a xlink:href="src/atoms/import.ts" xlink:title="import.ts">
<path fill="#ddfeff" stroke="black" d="M1204.58,-187.88C1204.58,-187.88 1162.42,-187.88 1162.42,-187.88 1159.46,-187.88 1156.5,-184.92 1156.5,-181.96 1156.5,-181.96 1156.5,-176.04 1156.5,-176.04 1156.5,-173.08 1159.46,-170.12 1162.42,-170.12 1162.42,-170.12 1204.58,-170.12 1204.58,-170.12 1207.54,-170.12 1210.5,-173.08 1210.5,-176.04 1210.5,-176.04 1210.5,-181.96 1210.5,-181.96 1210.5,-184.92 1207.54,-187.88 1204.58,-187.88"/>
<text text-anchor="start" x="1166.25" y="-175.32" font-family="Helvetica,sans-Serif" font-size="9.00">import.ts</text>
</a>
</g>
</g>
<!-- src/atoms/import.ts&#45;&gt;src/models/index.ts -->
<g id="edge6" class="edge">
<title>src/atoms/import.ts&#45;&gt;src/models/index.ts</title>
<path fill="none" stroke="#000000" stroke-width="2" stroke-opacity="0.200000" d="M1204.33,-169.76C1210.35,-167.4 1217.08,-165.19 1223.5,-164 1268.4,-155.66 1284.37,-145.8 1326.25,-164 1340.18,-170.05 1351.59,-183.25 1358.98,-193.8"/>
<polygon fill="#000000" fill-opacity="0.200000" stroke="#000000" stroke-width="2" stroke-opacity="0.200000" points="1360.55,-199.96 1358.98,-193.8 1364.05,-197.63 1360.55,-199.96"/>
</g>
<!-- src/atoms/index.ts -->
<g id="node10" class="node">
<title>src/atoms/index.ts</title>
<g id="a_node10"><a xlink:href="src/atoms/index.ts" xlink:title="index.ts">
<path fill="#ddfeff" stroke="black" d="M1204.58,-232.88C1204.58,-232.88 1162.42,-232.88 1162.42,-232.88 1159.46,-232.88 1156.5,-229.92 1156.5,-226.96 1156.5,-226.96 1156.5,-221.04 1156.5,-221.04 1156.5,-218.08 1159.46,-215.12 1162.42,-215.12 1162.42,-215.12 1204.58,-215.12 1204.58,-215.12 1207.54,-215.12 1210.5,-218.08 1210.5,-221.04 1210.5,-221.04 1210.5,-226.96 1210.5,-226.96 1210.5,-229.92 1207.54,-232.88 1204.58,-232.88"/>
<text text-anchor="start" x="1167.75" y="-220.32" font-family="Helvetica,sans-Serif" font-size="9.00">index.ts</text>
</a>
</g>
</g>
<!-- src/atoms/index.ts&#45;&gt;src/atoms/CustomerAtom.tsx -->
<g id="edge7" class="edge">
<title>src/atoms/index.ts&#45;&gt;src/atoms/CustomerAtom.tsx</title>
<path fill="none" stroke="#000000" stroke-width="2" stroke-opacity="0.200000" d="M1210.58,-228.58C1213.23,-229.05 1215.98,-229.53 1218.78,-230.02"/>
<polygon fill="#000000" fill-opacity="0.200000" stroke="#000000" stroke-width="2" stroke-opacity="0.200000" points="1224.03,-233.08 1218.48,-229.97 1224.75,-228.94 1224.03,-233.08"/>
</g>
<!-- src/atoms/index.ts&#45;&gt;src/atoms/OrderAtom.tsx -->
<g id="edge8" class="edge">
<title>src/atoms/index.ts&#45;&gt;src/atoms/OrderAtom.tsx</title>
<path fill="none" stroke="#000000" stroke-width="2" stroke-opacity="0.200000" d="M1194.43,-233.19C1201.94,-239.74 1212.76,-248.35 1223.5,-254 1225.52,-255.06 1227.63,-256.07 1229.79,-257.02"/>
<polygon fill="#000000" fill-opacity="0.200000" stroke="#000000" stroke-width="2" stroke-opacity="0.200000" points="1234.66,-261.26 1229.89,-257.06 1236.24,-257.37 1234.66,-261.26"/>
</g>
<!-- src/atoms/index.ts&#45;&gt;src/atoms/OrderEntryAtom.tsx -->
<g id="edge9" class="edge">
<title>src/atoms/index.ts&#45;&gt;src/atoms/OrderEntryAtom.tsx</title>
<path fill="none" stroke="#000000" stroke-width="2" stroke-opacity="0.200000" d="M1188.08,-233.13C1193.68,-246.26 1205.75,-270.4 1223.5,-284 1224.61,-284.85 1225.77,-285.65 1226.96,-286.41"/>
<polygon fill="#000000" fill-opacity="0.200000" stroke="#000000" stroke-width="2" stroke-opacity="0.200000" points="1231.33,-291.2 1227.08,-286.47 1233.35,-287.51 1231.33,-291.2"/>
</g>
<!-- src/atoms/index.ts&#45;&gt;src/atoms/PaperAtom.tsx -->
<g id="edge10" class="edge">
<title>src/atoms/index.ts&#45;&gt;src/atoms/PaperAtom.tsx</title>
<path fill="none" stroke="#000000" stroke-width="2" stroke-opacity="0.200000" d="M1194.43,-214.81C1201.94,-208.26 1212.76,-199.65 1223.5,-194 1225.52,-192.94 1227.63,-191.93 1229.79,-190.98"/>
<polygon fill="#000000" fill-opacity="0.200000" stroke="#000000" stroke-width="2" stroke-opacity="0.200000" points="1236.24,-190.63 1229.89,-190.94 1234.66,-186.74 1236.24,-190.63"/>
</g>
<!-- src/atoms/index.ts&#45;&gt;src/atoms/PropertyAtom.tsx -->
<g id="edge11" class="edge">
<title>src/atoms/index.ts&#45;&gt;src/atoms/PropertyAtom.tsx</title>
<path fill="none" stroke="#000000" stroke-width="2" stroke-opacity="0.200000" d="M1210.58,-219.42C1213.93,-218.83 1217.43,-218.21 1221,-217.59"/>
<polygon fill="#000000" fill-opacity="0.200000" stroke="#000000" stroke-width="2" stroke-opacity="0.200000" points="1227.29,-218.62 1221.01,-217.59 1226.56,-214.48 1227.29,-218.62"/>
</g>
<!-- src/components/CreateProperty.tsx -->
<g id="node11" class="node">
<title>src/components/CreateProperty.tsx</title>
<g id="a_node11"><a xlink:href="src/components/CreateProperty.tsx" xlink:title="CreateProperty.tsx">
<path fill="#bbfeff" stroke="black" d="M484.21,-41.88C484.21,-41.88 404.29,-41.88 404.29,-41.88 401.33,-41.88 398.38,-38.92 398.38,-35.96 398.38,-35.96 398.38,-30.04 398.38,-30.04 398.38,-27.08 401.33,-24.12 404.29,-24.12 404.29,-24.12 484.21,-24.12 484.21,-24.12 487.17,-24.12 490.12,-27.08 490.12,-30.04 490.12,-30.04 490.12,-35.96 490.12,-35.96 490.12,-38.92 487.17,-41.88 484.21,-41.88"/>
<text text-anchor="start" x="406.38" y="-29.32" font-family="Helvetica,sans-Serif" font-size="9.00">CreateProperty.tsx</text>
</a>
</g>
</g>
<!-- src/components/import.ts -->
<g id="node12" class="node">
<title>src/components/import.ts</title>
<g id="a_node12"><a xlink:href="src/components/import.ts" xlink:title="import.ts">
<path fill="#ddfeff" stroke="black" d="M610.96,-223.88C610.96,-223.88 568.79,-223.88 568.79,-223.88 565.83,-223.88 562.88,-220.92 562.88,-217.96 562.88,-217.96 562.88,-212.04 562.88,-212.04 562.88,-209.08 565.83,-206.12 568.79,-206.12 568.79,-206.12 610.96,-206.12 610.96,-206.12 613.92,-206.12 616.88,-209.08 616.88,-212.04 616.88,-212.04 616.88,-217.96 616.88,-217.96 616.88,-220.92 613.92,-223.88 610.96,-223.88"/>
<text text-anchor="start" x="572.62" y="-211.32" font-family="Helvetica,sans-Serif" font-size="9.00">import.ts</text>
</a>
</g>
</g>
<!-- src/components/CreateProperty.tsx&#45;&gt;src/components/import.ts -->
<g id="edge12" class="edge">
<title>src/components/CreateProperty.tsx&#45;&gt;src/components/import.ts</title>
<path fill="none" stroke="#000000" stroke-width="2" stroke-opacity="0.200000" d="M490.6,-34.89C500.27,-37.08 509.85,-40.81 517.5,-47 565.47,-85.81 581.76,-162.76 586.81,-197.39"/>
<polygon fill="#000000" fill-opacity="0.200000" stroke="#000000" stroke-width="2" stroke-opacity="0.200000" points="584.68,-197.3 587.55,-202.97 588.84,-196.74 584.68,-197.3"/>
</g>
<!-- src/components/PropertyModal.tsx -->
<g id="node13" class="node">
<title>src/components/PropertyModal.tsx</title>
<g id="a_node13"><a xlink:href="src/components/PropertyModal.tsx" xlink:title="PropertyModal.tsx">
<path fill="#bbfeff" stroke="black" d="M628.71,-41.88C628.71,-41.88 551.04,-41.88 551.04,-41.88 548.08,-41.88 545.12,-38.92 545.12,-35.96 545.12,-35.96 545.12,-30.04 545.12,-30.04 545.12,-27.08 548.08,-24.12 551.04,-24.12 551.04,-24.12 628.71,-24.12 628.71,-24.12 631.67,-24.12 634.62,-27.08 634.62,-30.04 634.62,-30.04 634.62,-35.96 634.62,-35.96 634.62,-38.92 631.67,-41.88 628.71,-41.88"/>
<text text-anchor="start" x="553.12" y="-29.32" font-family="Helvetica,sans-Serif" font-size="9.00">PropertyModal.tsx</text>
</a>
</g>
</g>
<!-- src/components/CreateProperty.tsx&#45;&gt;src/components/PropertyModal.tsx -->
<g id="edge13" class="edge">
<title>src/components/CreateProperty.tsx&#45;&gt;src/components/PropertyModal.tsx</title>
<path fill="none" stroke="#000000" stroke-width="2" stroke-opacity="0.200000" d="M490.3,-33C504.88,-33 521.18,-33 536.25,-33"/>
<polygon fill="#000000" fill-opacity="0.200000" stroke="#000000" stroke-width="2" stroke-opacity="0.200000" points="535.94,-35.1 541.94,-33 535.94,-30.9 535.94,-35.1"/>
</g>
<!-- src/components/import.ts&#45;&gt;src/models/index.ts -->
<g id="edge25" class="edge">
<title>src/components/import.ts&#45;&gt;src/models/index.ts</title>
<path fill="none" stroke="#000000" stroke-width="2" stroke-opacity="0.200000" d="M597.76,-224.21C620.58,-253.55 697.14,-343 782.88,-343 782.88,-343 782.88,-343 1184.5,-343 1247.56,-343 1275.98,-375.06 1326.25,-337 1361.53,-310.29 1367.6,-253.14 1368.37,-225.14"/>
<polygon fill="#000000" fill-opacity="0.200000" stroke="#000000" stroke-width="2" stroke-opacity="0.200000" points="1370.55,-219.09 1368.37,-225.06 1366.35,-219.03 1370.55,-219.09"/>
</g>
<!-- src/components/import.ts&#45;&gt;src/atoms/index.ts -->
<g id="edge22" class="edge">
<title>src/components/import.ts&#45;&gt;src/atoms/index.ts</title>
<path fill="none" stroke="#000000" stroke-width="2" stroke-opacity="0.200000" d="M617.12,-222.01C630.52,-225.3 647.15,-228.95 662.25,-231 715.44,-238.23 729.2,-237 782.88,-237 782.88,-237 782.88,-237 1028.5,-237 1070.28,-237 1118.22,-232.19 1149.36,-228.42"/>
<polygon fill="#000000" fill-opacity="0.200000" stroke="#000000" stroke-width="2" stroke-opacity="0.200000" points="1155.39,-229.79 1149.18,-228.44 1154.87,-225.62 1155.39,-229.79"/>
</g>
<!-- src/helpers/index.ts -->
<g id="node20" class="node">
<title>src/helpers/index.ts</title>
<g id="a_node20"><a xlink:href="src/helpers/index.ts" xlink:title="index.ts">
<path fill="#ddfeff" stroke="black" d="M970.58,-175.88C970.58,-175.88 928.42,-175.88 928.42,-175.88 925.46,-175.88 922.5,-172.92 922.5,-169.96 922.5,-169.96 922.5,-164.04 922.5,-164.04 922.5,-161.08 925.46,-158.12 928.42,-158.12 928.42,-158.12 970.58,-158.12 970.58,-158.12 973.54,-158.12 976.5,-161.08 976.5,-164.04 976.5,-164.04 976.5,-169.96 976.5,-169.96 976.5,-172.92 973.54,-175.88 970.58,-175.88"/>
<text text-anchor="start" x="933.75" y="-163.32" font-family="Helvetica,sans-Serif" font-size="9.00">index.ts</text>
</a>
</g>
</g>
<!-- src/components/import.ts&#45;&gt;src/helpers/index.ts -->
<g id="edge23" class="edge">
<title>src/components/import.ts&#45;&gt;src/helpers/index.ts</title>
<path fill="none" stroke="#000000" stroke-width="2" stroke-opacity="0.200000" d="M602.14,-205.86C615.54,-195.62 639.01,-179.59 662.25,-173 750.81,-147.88 861.03,-155.96 915.24,-162.36"/>
<polygon fill="#000000" fill-opacity="0.200000" stroke="#000000" stroke-width="2" stroke-opacity="0.200000" points="920.94,-165.17 915.24,-162.36 921.45,-161 920.94,-165.17"/>
</g>
<!-- src/hooks/index.ts -->
<g id="node21" class="node">
<title>src/hooks/index.ts</title>
<g id="a_node21"><a xlink:href="src/hooks/index.ts" xlink:title="index.ts">
<path fill="#ddfeff" stroke="black" d="M718.33,-201.88C718.33,-201.88 676.17,-201.88 676.17,-201.88 673.21,-201.88 670.25,-198.92 670.25,-195.96 670.25,-195.96 670.25,-190.04 670.25,-190.04 670.25,-187.08 673.21,-184.12 676.17,-184.12 676.17,-184.12 718.33,-184.12 718.33,-184.12 721.29,-184.12 724.25,-187.08 724.25,-190.04 724.25,-190.04 724.25,-195.96 724.25,-195.96 724.25,-198.92 721.29,-201.88 718.33,-201.88"/>
<text text-anchor="start" x="681.5" y="-189.32" font-family="Helvetica,sans-Serif" font-size="9.00">index.ts</text>
</a>
</g>
</g>
<!-- src/components/import.ts&#45;&gt;src/hooks/index.ts -->
<g id="edge24" class="edge">
<title>src/components/import.ts&#45;&gt;src/hooks/index.ts</title>
<path fill="none" stroke="#000000" stroke-width="2" stroke-opacity="0.200000" d="M617.19,-209.51C631.15,-206.59 648.43,-202.98 663.27,-199.88"/>
<polygon fill="#000000" fill-opacity="0.200000" stroke="#000000" stroke-width="2" stroke-opacity="0.200000" points="669.35,-200.76 663.05,-199.93 668.49,-196.65 669.35,-200.76"/>
</g>
<!-- src/components/CustomerTable.tsx -->
<g id="node14" class="node">
<title>src/components/CustomerTable.tsx</title>
<g id="a_node14"><a xlink:href="src/components/CustomerTable.tsx" xlink:title="CustomerTable.tsx">
<path fill="#bbfeff" stroke="black" d="M484.21,-319.88C484.21,-319.88 404.29,-319.88 404.29,-319.88 401.33,-319.88 398.38,-316.92 398.38,-313.96 398.38,-313.96 398.38,-308.04 398.38,-308.04 398.38,-305.08 401.33,-302.12 404.29,-302.12 404.29,-302.12 484.21,-302.12 484.21,-302.12 487.17,-302.12 490.12,-305.08 490.12,-308.04 490.12,-308.04 490.12,-313.96 490.12,-313.96 490.12,-316.92 487.17,-319.88 484.21,-319.88"/>
<text text-anchor="start" x="406.38" y="-307.32" font-family="Helvetica,sans-Serif" font-size="9.00">CustomerTable.tsx</text>
</a>
</g>
</g>
<!-- src/components/CustomerTable.tsx&#45;&gt;src/components/import.ts -->
<g id="edge14" class="edge">
<title>src/components/CustomerTable.tsx&#45;&gt;src/components/import.ts</title>
<path fill="none" stroke="#000000" stroke-width="2" stroke-opacity="0.200000" d="M490.45,-306.26C499.81,-304.03 509.3,-300.76 517.5,-296 544.6,-280.24 566.76,-250.5 578.86,-231.77"/>
<polygon fill="#000000" fill-opacity="0.200000" stroke="#000000" stroke-width="2" stroke-opacity="0.200000" points="580.55,-233.03 581.95,-226.83 576.99,-230.81 580.55,-233.03"/>
</g>
<!-- src/components/Navbar.tsx -->
<g id="node15" class="node">
<title>src/components/Navbar.tsx</title>
<g id="a_node15"><a xlink:href="src/components/Navbar.tsx" xlink:title="Navbar.tsx">
<path fill="#bbfeff" stroke="black" d="M468.08,-289.88C468.08,-289.88 420.42,-289.88 420.42,-289.88 417.46,-289.88 414.5,-286.92 414.5,-283.96 414.5,-283.96 414.5,-278.04 414.5,-278.04 414.5,-275.08 417.46,-272.12 420.42,-272.12 420.42,-272.12 468.08,-272.12 468.08,-272.12 471.04,-272.12 474,-275.08 474,-278.04 474,-278.04 474,-283.96 474,-283.96 474,-286.92 471.04,-289.88 468.08,-289.88"/>
<text text-anchor="start" x="422.5" y="-277.32" font-family="Helvetica,sans-Serif" font-size="9.00">Navbar.tsx</text>
</a>
</g>
</g>
<!-- src/components/Navbar.tsx&#45;&gt;src/assets/Account.png -->
<g id="edge15" class="edge">
<title>src/components/Navbar.tsx&#45;&gt;src/assets/Account.png</title>
<path fill="none" stroke="#000000" stroke-width="2" stroke-opacity="0.200000" d="M474.36,-279.65C489.29,-280.58 506.58,-284.46 517.5,-296 533.88,-313.3 510.28,-330.68 525.5,-349 531.19,-355.85 539.14,-360.58 547.49,-363.83"/>
<polygon fill="#000000" fill-opacity="0.200000" stroke="#000000" stroke-width="2" stroke-opacity="0.200000" points="546.68,-365.77 553.03,-365.66 548,-361.78 546.68,-365.77"/>
</g>
<!-- src/components/Navbar.tsx&#45;&gt;src/assets/DunderMifflin&#45;Logo.png -->
<g id="edge16" class="edge">
<title>src/components/Navbar.tsx&#45;&gt;src/assets/DunderMifflin&#45;Logo.png</title>
<path fill="none" stroke="#000000" stroke-width="2" stroke-opacity="0.200000" d="M474.28,-279.37C489.38,-280.18 506.85,-284.04 517.5,-296 530.85,-311 512.36,-370.82 525.5,-386 525.78,-386.32 526.06,-386.63 526.35,-386.94"/>
<polygon fill="#000000" fill-opacity="0.200000" stroke="#000000" stroke-width="2" stroke-opacity="0.200000" points="524.82,-388.4 530.77,-390.63 527.51,-385.17 524.82,-388.4"/>
</g>
<!-- src/components/Navbar.tsx&#45;&gt;src/components/import.ts -->
<g id="edge17" class="edge">
<title>src/components/Navbar.tsx&#45;&gt;src/components/import.ts</title>
<path fill="none" stroke="#000000" stroke-width="2" stroke-opacity="0.200000" d="M474.23,-277.79C487.78,-275.6 503.89,-271.96 517.5,-266 538.17,-256.95 558.83,-241.29 572.56,-229.71"/>
<polygon fill="#000000" fill-opacity="0.200000" stroke="#000000" stroke-width="2" stroke-opacity="0.200000" points="573.61,-231.57 576.78,-226.06 570.87,-228.39 573.61,-231.57"/>
</g>
<!-- src/components/OrderTable.tsx -->
<g id="node16" class="node">
<title>src/components/OrderTable.tsx</title>
<g id="a_node16"><a xlink:href="src/components/OrderTable.tsx" xlink:title="OrderTable.tsx">
<path fill="#bbfeff" stroke="black" d="M475.96,-259.88C475.96,-259.88 412.54,-259.88 412.54,-259.88 409.58,-259.88 406.62,-256.92 406.62,-253.96 406.62,-253.96 406.62,-248.04 406.62,-248.04 406.62,-245.08 409.58,-242.12 412.54,-242.12 412.54,-242.12 475.96,-242.12 475.96,-242.12 478.92,-242.12 481.88,-245.08 481.88,-248.04 481.88,-248.04 481.88,-253.96 481.88,-253.96 481.88,-256.92 478.92,-259.88 475.96,-259.88"/>
<text text-anchor="start" x="414.62" y="-247.32" font-family="Helvetica,sans-Serif" font-size="9.00">OrderTable.tsx</text>
</a>
</g>
</g>
<!-- src/components/OrderTable.tsx&#45;&gt;src/components/import.ts -->
<g id="edge18" class="edge">
<title>src/components/OrderTable.tsx&#45;&gt;src/components/import.ts</title>
<path fill="none" stroke="#000000" stroke-width="2" stroke-opacity="0.200000" d="M482.01,-241.86C493.39,-239.03 505.96,-235.89 517.5,-233 529.35,-230.03 542.31,-226.77 553.89,-223.84"/>
<polygon fill="#000000" fill-opacity="0.200000" stroke="#000000" stroke-width="2" stroke-opacity="0.200000" points="554.2,-225.93 559.51,-222.43 553.17,-221.86 554.2,-225.93"/>
</g>
<!-- src/components/ParentPaperProperty.tsx -->
<g id="node17" class="node">
<title>src/components/ParentPaperProperty.tsx</title>
<g id="a_node17"><a xlink:href="src/components/ParentPaperProperty.tsx" xlink:title="ParentPaperProperty.tsx">
<path fill="#bbfeff" stroke="black" d="M206.33,-105.88C206.33,-105.88 102.42,-105.88 102.42,-105.88 99.46,-105.88 96.5,-102.92 96.5,-99.96 96.5,-99.96 96.5,-94.04 96.5,-94.04 96.5,-91.08 99.46,-88.12 102.42,-88.12 102.42,-88.12 206.33,-88.12 206.33,-88.12 209.29,-88.12 212.25,-91.08 212.25,-94.04 212.25,-94.04 212.25,-99.96 212.25,-99.96 212.25,-102.92 209.29,-105.88 206.33,-105.88"/>
<text text-anchor="start" x="104.5" y="-93.33" font-family="Helvetica,sans-Serif" font-size="9.00">ParentPaperProperty.tsx</text>
</a>
</g>
</g>
<!-- src/components/ParentPaperProperty.tsx&#45;&gt;src/components/CreateProperty.tsx -->
<g id="edge19" class="edge">
<title>src/components/ParentPaperProperty.tsx&#45;&gt;src/components/CreateProperty.tsx</title>
<path fill="none" stroke="#000000" stroke-width="2" stroke-opacity="0.200000" d="M166.67,-87.81C181.96,-75.96 210.57,-55.85 238.75,-47 288.09,-31.5 347.32,-29.09 389.31,-29.9"/>
<polygon fill="#000000" fill-opacity="0.200000" stroke="#000000" stroke-width="2" stroke-opacity="0.200000" points="389.18,-32 395.23,-30.05 389.29,-27.8 389.18,-32"/>
</g>
<!-- src/components/paper/CreatePaper.tsx -->
<g id="node18" class="node">
<title>src/components/paper/CreatePaper.tsx</title>
<g id="a_node18"><a xlink:href="src/components/paper/CreatePaper.tsx" xlink:title="CreatePaper.tsx">
<path fill="#bbfeff" stroke="black" d="M335.96,-105.88C335.96,-105.88 265.79,-105.88 265.79,-105.88 262.83,-105.88 259.88,-102.92 259.88,-99.96 259.88,-99.96 259.88,-94.04 259.88,-94.04 259.88,-91.08 262.83,-88.12 265.79,-88.12 265.79,-88.12 335.96,-88.12 335.96,-88.12 338.92,-88.12 341.88,-91.08 341.88,-94.04 341.88,-94.04 341.88,-99.96 341.88,-99.96 341.88,-102.92 338.92,-105.88 335.96,-105.88"/>
<text text-anchor="start" x="267.88" y="-93.33" font-family="Helvetica,sans-Serif" font-size="9.00">CreatePaper.tsx</text>
</a>
</g>
</g>
<!-- src/components/ParentPaperProperty.tsx&#45;&gt;src/components/paper/CreatePaper.tsx -->
<g id="edge20" class="edge">
<title>src/components/ParentPaperProperty.tsx&#45;&gt;src/components/paper/CreatePaper.tsx</title>
<path fill="none" stroke="#000000" stroke-width="2" stroke-opacity="0.200000" d="M212.49,-97C225.18,-97 238.53,-97 250.87,-97"/>
<polygon fill="#000000" fill-opacity="0.200000" stroke="#000000" stroke-width="2" stroke-opacity="0.200000" points="250.62,-99.1 256.62,-97 250.62,-94.9 250.62,-99.1"/>
</g>
<!-- src/components/paper/CreatePaper.tsx&#45;&gt;src/components/import.ts -->
<g id="edge26" class="edge">
<title>src/components/paper/CreatePaper.tsx&#45;&gt;src/components/import.ts</title>
<path fill="none" stroke="#000000" stroke-width="2" stroke-opacity="0.200000" d="M342.29,-99.6C350.17,-101.95 357.64,-105.8 363,-112 374.99,-125.84 357.95,-181.15 371,-194 382.64,-205.46 501.26,-204.31 517.5,-206 529.26,-207.22 542.09,-208.77 553.58,-210.24"/>
<polygon fill="#000000" fill-opacity="0.200000" stroke="#000000" stroke-width="2" stroke-opacity="0.200000" points="553.25,-212.31 559.47,-211 553.79,-208.15 553.25,-212.31"/>
</g>
<!-- src/components/paper/ProductModal.tsx -->
<g id="node22" class="node">
<title>src/components/paper/ProductModal.tsx</title>
<g id="a_node22"><a xlink:href="src/components/paper/ProductModal.tsx" xlink:title="ProductModal.tsx">
<path fill="#bbfeff" stroke="black" d="M481.58,-103.88C481.58,-103.88 406.92,-103.88 406.92,-103.88 403.96,-103.88 401,-100.92 401,-97.96 401,-97.96 401,-92.04 401,-92.04 401,-89.08 403.96,-86.12 406.92,-86.12 406.92,-86.12 481.58,-86.12 481.58,-86.12 484.54,-86.12 487.5,-89.08 487.5,-92.04 487.5,-92.04 487.5,-97.96 487.5,-97.96 487.5,-100.92 484.54,-103.88 481.58,-103.88"/>
<text text-anchor="start" x="409" y="-91.33" font-family="Helvetica,sans-Serif" font-size="9.00">ProductModal.tsx</text>
</a>
</g>
</g>
<!-- src/components/paper/CreatePaper.tsx&#45;&gt;src/components/paper/ProductModal.tsx -->
<g id="edge27" class="edge">
<title>src/components/paper/CreatePaper.tsx&#45;&gt;src/components/paper/ProductModal.tsx</title>
<path fill="none" stroke="#000000" stroke-width="2" stroke-opacity="0.200000" d="M342.01,-96.43C357.44,-96.21 375.27,-95.96 391.63,-95.73"/>
<polygon fill="#000000" fill-opacity="0.200000" stroke="#000000" stroke-width="2" stroke-opacity="0.200000" points="391.55,-97.83 397.52,-95.65 391.49,-93.63 391.55,-97.83"/>
</g>
<!-- src/components/PropertiesModificationModal.tsx -->
<g id="node19" class="node">
<title>src/components/PropertiesModificationModal.tsx</title>
<g id="a_node19"><a xlink:href="src/components/PropertiesModificationModal.tsx" xlink:title="PropertiesModificationModal.tsx">
<path fill="#bbfeff" stroke="black" d="M511.58,-187.88C511.58,-187.88 376.92,-187.88 376.92,-187.88 373.96,-187.88 371,-184.92 371,-181.96 371,-181.96 371,-176.04 371,-176.04 371,-173.08 373.96,-170.12 376.92,-170.12 376.92,-170.12 511.58,-170.12 511.58,-170.12 514.54,-170.12 517.5,-173.08 517.5,-176.04 517.5,-176.04 517.5,-181.96 517.5,-181.96 517.5,-184.92 514.54,-187.88 511.58,-187.88"/>
<text text-anchor="start" x="379" y="-175.32" font-family="Helvetica,sans-Serif" font-size="9.00">PropertiesModificationModal.tsx</text>
</a>
</g>
</g>
<!-- src/components/PropertiesModificationModal.tsx&#45;&gt;src/components/import.ts -->
<g id="edge21" class="edge">
<title>src/components/PropertiesModificationModal.tsx&#45;&gt;src/components/import.ts</title>
<path fill="none" stroke="#000000" stroke-width="2" stroke-opacity="0.200000" d="M482.75,-188.32C493.93,-191.11 506.21,-194.17 517.5,-197 529.35,-199.97 542.31,-203.23 553.89,-206.16"/>
<polygon fill="#000000" fill-opacity="0.200000" stroke="#000000" stroke-width="2" stroke-opacity="0.200000" points="553.17,-208.14 559.51,-207.57 554.2,-204.07 553.17,-208.14"/>
</g>
<!-- src/helpers/getTotalCost.ts -->
<g id="node26" class="node">
<title>src/helpers/getTotalCost.ts</title>
<g id="a_node26"><a xlink:href="src/helpers/getTotalCost.ts" xlink:title="getTotalCost.ts">
<path fill="#ddfeff" stroke="black" d="M1059.58,-175.88C1059.58,-175.88 995.42,-175.88 995.42,-175.88 992.46,-175.88 989.5,-172.92 989.5,-169.96 989.5,-169.96 989.5,-164.04 989.5,-164.04 989.5,-161.08 992.46,-158.12 995.42,-158.12 995.42,-158.12 1059.58,-158.12 1059.58,-158.12 1062.54,-158.12 1065.5,-161.08 1065.5,-164.04 1065.5,-164.04 1065.5,-169.96 1065.5,-169.96 1065.5,-172.92 1062.54,-175.88 1059.58,-175.88"/>
<text text-anchor="start" x="997.5" y="-163.32" font-family="Helvetica,sans-Serif" font-size="9.00">getTotalCost.ts</text>
</a>
</g>
</g>
<!-- src/helpers/index.ts&#45;&gt;src/helpers/getTotalCost.ts -->
<g id="edge38" class="edge">
<title>src/helpers/index.ts&#45;&gt;src/helpers/getTotalCost.ts</title>
<path fill="none" stroke="#000000" stroke-width="2" stroke-opacity="0.200000" d="M976.65,-167C978.42,-167 980.22,-167 982.05,-167"/>
<polygon fill="#000000" fill-opacity="0.200000" stroke="#000000" stroke-width="2" stroke-opacity="0.200000" points="988.15,-169.1 982.15,-167 988.15,-164.9 988.15,-169.1"/>
</g>
<!-- src/helpers/http.ts -->
<g id="node28" class="node">
<title>src/helpers/http.ts</title>
<g id="a_node28"><a xlink:href="src/helpers/http.ts" xlink:title="http.ts">
<path fill="#ddfeff" stroke="black" d="M1048.58,-145.88C1048.58,-145.88 1006.42,-145.88 1006.42,-145.88 1003.46,-145.88 1000.5,-142.92 1000.5,-139.96 1000.5,-139.96 1000.5,-134.04 1000.5,-134.04 1000.5,-131.08 1003.46,-128.12 1006.42,-128.12 1006.42,-128.12 1048.58,-128.12 1048.58,-128.12 1051.54,-128.12 1054.5,-131.08 1054.5,-134.04 1054.5,-134.04 1054.5,-139.96 1054.5,-139.96 1054.5,-142.92 1051.54,-145.88 1048.58,-145.88"/>
<text text-anchor="start" x="1015.5" y="-133.32" font-family="Helvetica,sans-Serif" font-size="9.00">http.ts</text>
</a>
</g>
</g>
<!-- src/helpers/index.ts&#45;&gt;src/helpers/http.ts -->
<g id="edge39" class="edge">
<title>src/helpers/index.ts&#45;&gt;src/helpers/http.ts</title>
<path fill="none" stroke="#000000" stroke-width="2" stroke-opacity="0.200000" d="M974.13,-157.67C981.14,-154.91 988.91,-151.84 996.27,-148.93"/>
<polygon fill="#000000" fill-opacity="0.200000" stroke="#000000" stroke-width="2" stroke-opacity="0.200000" points="1002.73,-148.64 996.37,-148.89 1001.18,-144.74 1002.73,-148.64"/>
</g>
<!-- src/hooks/useInitializeData.ts -->
<g id="node31" class="node">
<title>src/hooks/useInitializeData.ts</title>
<g id="a_node31"><a xlink:href="src/hooks/useInitializeData.ts" xlink:title="useInitializeData.ts">
<path fill="#ddfeff" stroke="black" d="M824.58,-201.88C824.58,-201.88 743.17,-201.88 743.17,-201.88 740.21,-201.88 737.25,-198.92 737.25,-195.96 737.25,-195.96 737.25,-190.04 737.25,-190.04 737.25,-187.08 740.21,-184.12 743.17,-184.12 743.17,-184.12 824.58,-184.12 824.58,-184.12 827.54,-184.12 830.5,-187.08 830.5,-190.04 830.5,-190.04 830.5,-195.96 830.5,-195.96 830.5,-198.92 827.54,-201.88 824.58,-201.88"/>
<text text-anchor="start" x="745.25" y="-189.32" font-family="Helvetica,sans-Serif" font-size="9.00">useInitializeData.ts</text>
</a>
</g>
</g>
<!-- src/hooks/index.ts&#45;&gt;src/hooks/useInitializeData.ts -->
<g id="edge42" class="edge">
<title>src/hooks/index.ts&#45;&gt;src/hooks/useInitializeData.ts</title>
<path fill="none" stroke="#000000" stroke-width="2" stroke-opacity="0.200000" d="M724.56,-193C726.3,-193 728.09,-193 729.9,-193"/>
<polygon fill="#000000" fill-opacity="0.200000" stroke="#000000" stroke-width="2" stroke-opacity="0.200000" points="735.99,-195.1 729.99,-193 735.99,-190.9 735.99,-195.1"/>
</g>
<!-- src/components/paper/PaperCards.tsx -->
<g id="node23" class="node">
<title>src/components/paper/PaperCards.tsx</title>
<g id="a_node23"><a xlink:href="src/components/paper/PaperCards.tsx" xlink:title="PaperCards.tsx">
<path fill="#bbfeff" stroke="black" d="M334.46,-135.88C334.46,-135.88 267.29,-135.88 267.29,-135.88 264.33,-135.88 261.38,-132.92 261.38,-129.96 261.38,-129.96 261.38,-124.04 261.38,-124.04 261.38,-121.08 264.33,-118.12 267.29,-118.12 267.29,-118.12 334.46,-118.12 334.46,-118.12 337.42,-118.12 340.38,-121.08 340.38,-124.04 340.38,-124.04 340.38,-129.96 340.38,-129.96 340.38,-132.92 337.42,-135.88 334.46,-135.88"/>
<text text-anchor="start" x="269.38" y="-123.33" font-family="Helvetica,sans-Serif" font-size="9.00">PaperCards.tsx</text>
</a>
</g>
</g>
<!-- src/components/paper/PaperCards.tsx&#45;&gt;src/components/import.ts -->
<g id="edge28" class="edge">
<title>src/components/paper/PaperCards.tsx&#45;&gt;src/components/import.ts</title>
<path fill="none" stroke="#000000" stroke-width="2" stroke-opacity="0.200000" d="M306.65,-136.11C316.2,-153.26 339.49,-189.94 371,-205 402.33,-219.97 500.58,-218.62 553.8,-216.66"/>
<polygon fill="#000000" fill-opacity="0.200000" stroke="#000000" stroke-width="2" stroke-opacity="0.200000" points="553.62,-218.76 559.53,-216.43 553.46,-214.57 553.62,-218.76"/>
</g>
<!-- src/components/paper/ProductTable.tsx -->
<g id="node24" class="node">
<title>src/components/paper/ProductTable.tsx</title>
<g id="a_node24"><a xlink:href="src/components/paper/ProductTable.tsx" xlink:title="ProductTable.tsx">
<path fill="#bbfeff" stroke="black" d="M336.71,-75.88C336.71,-75.88 265.04,-75.88 265.04,-75.88 262.08,-75.88 259.12,-72.92 259.12,-69.96 259.12,-69.96 259.12,-64.04 259.12,-64.04 259.12,-61.08 262.08,-58.12 265.04,-58.12 265.04,-58.12 336.71,-58.12 336.71,-58.12 339.67,-58.12 342.62,-61.08 342.62,-64.04 342.62,-64.04 342.62,-69.96 342.62,-69.96 342.62,-72.92 339.67,-75.88 336.71,-75.88"/>
<text text-anchor="start" x="267.12" y="-63.33" font-family="Helvetica,sans-Serif" font-size="9.00">ProductTable.tsx</text>
</a>
</g>
</g>
<!-- src/components/paper/ProductTable.tsx&#45;&gt;src/components/import.ts -->
<g id="edge29" class="edge">
<title>src/components/paper/ProductTable.tsx&#45;&gt;src/components/import.ts</title>
<path fill="none" stroke="#000000" stroke-width="2" stroke-opacity="0.200000" d="M342.85,-58.32C389.13,-50.88 464.85,-46.08 517.5,-80 559.33,-106.95 578.19,-166.95 585.28,-197.05"/>
<polygon fill="#000000" fill-opacity="0.200000" stroke="#000000" stroke-width="2" stroke-opacity="0.200000" points="583.19,-197.33 586.53,-202.74 587.29,-196.42 583.19,-197.33"/>
</g>
<!-- src/components/paper/ProductTable.tsx&#45;&gt;src/components/PropertiesModificationModal.tsx -->
<g id="edge30" class="edge">
<title>src/components/paper/ProductTable.tsx&#45;&gt;src/components/PropertiesModificationModal.tsx</title>
<path fill="none" stroke="#000000" stroke-width="2" stroke-opacity="0.200000" d="M342.92,-69.79C350.57,-72.16 357.78,-75.97 363,-82 373.75,-94.43 361.93,-139.29 371.52,-162.23"/>
<polygon fill="#000000" fill-opacity="0.200000" stroke="#000000" stroke-width="2" stroke-opacity="0.200000" points="369.73,-163.34 374.71,-167.28 373.28,-161.09 369.73,-163.34"/>
</g>
<!-- src/components/paper/ProductTable.tsx&#45;&gt;src/components/paper/ProductModal.tsx -->
<g id="edge31" class="edge">
<title>src/components/paper/ProductTable.tsx&#45;&gt;src/components/paper/ProductModal.tsx</title>
<path fill="none" stroke="#000000" stroke-width="2" stroke-opacity="0.200000" d="M342.76,-76.13C352.03,-78.12 361.85,-80.18 371,-82 377.77,-83.34 384.91,-84.7 391.95,-86"/>
<polygon fill="#000000" fill-opacity="0.200000" stroke="#000000" stroke-width="2" stroke-opacity="0.200000" points="391.54,-88.06 397.82,-87.08 392.29,-83.93 391.54,-88.06"/>
</g>
<!-- src/components/shoppingCart/ShoppingCartPage.tsx -->
<g id="node25" class="node">
<title>src/components/shoppingCart/ShoppingCartPage.tsx</title>
<g id="a_node25"><a xlink:href="src/components/shoppingCart/ShoppingCartPage.tsx" xlink:title="ShoppingCartPage.tsx">
<path fill="#bbfeff" stroke="black" d="M349.08,-289.88C349.08,-289.88 252.67,-289.88 252.67,-289.88 249.71,-289.88 246.75,-286.92 246.75,-283.96 246.75,-283.96 246.75,-278.04 246.75,-278.04 246.75,-275.08 249.71,-272.12 252.67,-272.12 252.67,-272.12 349.08,-272.12 349.08,-272.12 352.04,-272.12 355,-275.08 355,-278.04 355,-278.04 355,-283.96 355,-283.96 355,-286.92 352.04,-289.88 349.08,-289.88"/>
<text text-anchor="start" x="254.75" y="-277.32" font-family="Helvetica,sans-Serif" font-size="9.00">ShoppingCartPage.tsx</text>
</a>
</g>
</g>
<!-- src/components/shoppingCart/ShoppingCartPage.tsx&#45;&gt;src/components/import.ts -->
<g id="edge32" class="edge">
<title>src/components/shoppingCart/ShoppingCartPage.tsx&#45;&gt;src/components/import.ts</title>
<path fill="none" stroke="#000000" stroke-width="2" stroke-opacity="0.200000" d="M312.26,-271.9C325.08,-261.25 348.02,-244.04 371,-236 387.81,-230.12 496.84,-221.59 554.01,-217.44"/>
<polygon fill="#000000" fill-opacity="0.200000" stroke="#000000" stroke-width="2" stroke-opacity="0.200000" points="553.86,-219.56 559.7,-217.04 553.56,-215.37 553.86,-219.56"/>
</g>
<!-- src/components/shoppingCart/ShoppingCartPage.tsx&#45;&gt;src/components/Navbar.tsx -->
<g id="edge33" class="edge">
<title>src/components/shoppingCart/ShoppingCartPage.tsx&#45;&gt;src/components/Navbar.tsx</title>
<path fill="none" stroke="#000000" stroke-width="2" stroke-opacity="0.200000" d="M355.32,-281C372.06,-281 390.16,-281 405.57,-281"/>
<polygon fill="#000000" fill-opacity="0.200000" stroke="#000000" stroke-width="2" stroke-opacity="0.200000" points="405.27,-283.1 411.27,-281 405.27,-278.9 405.27,-283.1"/>
</g>
<!-- src/helpers/import.ts -->
<g id="node27" class="node">
<title>src/helpers/import.ts</title>
<g id="a_node27"><a xlink:href="src/helpers/import.ts" xlink:title="import.ts">
<path fill="#ddfeff" stroke="black" d="M1126.58,-175.88C1126.58,-175.88 1084.42,-175.88 1084.42,-175.88 1081.46,-175.88 1078.5,-172.92 1078.5,-169.96 1078.5,-169.96 1078.5,-164.04 1078.5,-164.04 1078.5,-161.08 1081.46,-158.12 1084.42,-158.12 1084.42,-158.12 1126.58,-158.12 1126.58,-158.12 1129.54,-158.12 1132.5,-161.08 1132.5,-164.04 1132.5,-164.04 1132.5,-169.96 1132.5,-169.96 1132.5,-172.92 1129.54,-175.88 1126.58,-175.88"/>
<text text-anchor="start" x="1088.25" y="-163.32" font-family="Helvetica,sans-Serif" font-size="9.00">import.ts</text>
</a>
</g>
</g>
<!-- src/helpers/getTotalCost.ts&#45;&gt;src/helpers/import.ts -->
<g id="edge34" class="edge">
<title>src/helpers/getTotalCost.ts&#45;&gt;src/helpers/import.ts</title>
<path fill="none" stroke="#000000" stroke-width="2" stroke-opacity="0.200000" d="M1065.61,-167C1066.8,-167 1067.98,-167 1069.17,-167"/>
<polygon fill="#000000" fill-opacity="0.200000" stroke="#000000" stroke-width="2" stroke-opacity="0.200000" points="1069.08,-169.1 1075.08,-167 1069.08,-164.9 1069.08,-169.1"/>
</g>
<!-- src/helpers/import.ts&#45;&gt;src/models/index.ts -->
<g id="edge37" class="edge">
<title>src/helpers/import.ts&#45;&gt;src/models/index.ts</title>
<path fill="none" stroke="#000000" stroke-width="2" stroke-opacity="0.200000" d="M1130.21,-157.65C1172.3,-142.64 1261.69,-118.04 1326.25,-151 1343.57,-159.84 1355.4,-179.53 1361.99,-193.51"/>
<polygon fill="#000000" fill-opacity="0.200000" stroke="#000000" stroke-width="2" stroke-opacity="0.200000" points="1362.48,-199.78 1361.96,-193.44 1366.32,-198.08 1362.48,-199.78"/>
</g>
<!-- src/helpers/import.ts&#45;&gt;src/atoms/index.ts -->
<g id="edge36" class="edge">
<title>src/helpers/import.ts&#45;&gt;src/atoms/index.ts</title>
<path fill="none" stroke="#000000" stroke-width="2" stroke-opacity="0.200000" d="M1118.71,-176.16C1131.05,-185.41 1150.25,-199.81 1164.36,-210.4"/>
<polygon fill="#000000" fill-opacity="0.200000" stroke="#000000" stroke-width="2" stroke-opacity="0.200000" points="1168.01,-215.76 1164.47,-210.48 1170.53,-212.4 1168.01,-215.76"/>
</g>
<!-- src/helpers/http.ts&#45;&gt;src/models/Api.ts -->
<g id="edge35" class="edge">
<title>src/helpers/http.ts&#45;&gt;src/models/Api.ts</title>
<path fill="none" stroke="#000000" stroke-width="2" stroke-opacity="0.200000" d="M1054.91,-134.79C1085.57,-132.42 1137.66,-129 1182.5,-129 1182.5,-129 1182.5,-129 1271.88,-129 1296.14,-129 1303.43,-125.74 1326.25,-134 1362.99,-147.3 1399.03,-176.04 1419.08,-193.83"/>
<polygon fill="#000000" fill-opacity="0.200000" stroke="#000000" stroke-width="2" stroke-opacity="0.200000" points="1417.62,-195.33 1423.47,-197.8 1420.44,-192.22 1417.62,-195.33"/>
</g>
<!-- src/hooks/imports.ts -->
<g id="node30" class="node">
<title>src/hooks/imports.ts</title>
<g id="a_node30"><a xlink:href="src/hooks/imports.ts" xlink:title="imports.ts">
<path fill="#ddfeff" stroke="black" d="M892.58,-201.88C892.58,-201.88 849.42,-201.88 849.42,-201.88 846.46,-201.88 843.5,-198.92 843.5,-195.96 843.5,-195.96 843.5,-190.04 843.5,-190.04 843.5,-187.08 846.46,-184.12 849.42,-184.12 849.42,-184.12 892.58,-184.12 892.58,-184.12 895.54,-184.12 898.5,-187.08 898.5,-190.04 898.5,-190.04 898.5,-195.96 898.5,-195.96 898.5,-198.92 895.54,-201.88 892.58,-201.88"/>
<text text-anchor="start" x="851.5" y="-189.32" font-family="Helvetica,sans-Serif" font-size="9.00">imports.ts</text>
</a>
</g>
</g>
<!-- src/hooks/imports.ts&#45;&gt;src/atoms/index.ts -->
<g id="edge40" class="edge">
<title>src/hooks/imports.ts&#45;&gt;src/atoms/index.ts</title>
<path fill="none" stroke="#000000" stroke-width="2" stroke-opacity="0.200000" d="M898.79,-201.46C903.96,-202.84 909.36,-204.1 914.5,-205 997.93,-219.58 1097.83,-223.03 1148.87,-223.81"/>
<polygon fill="#000000" fill-opacity="0.200000" stroke="#000000" stroke-width="2" stroke-opacity="0.200000" points="1155.01,-226 1149.04,-223.81 1155.06,-221.8 1155.01,-226"/>
</g>
<!-- src/hooks/imports.ts&#45;&gt;src/helpers/index.ts -->
<g id="edge41" class="edge">
<title>src/hooks/imports.ts&#45;&gt;src/helpers/index.ts</title>
<path fill="none" stroke="#000000" stroke-width="2" stroke-opacity="0.200000" d="M898.76,-183.91C904.21,-182.05 910,-180.08 915.63,-178.17"/>
<polygon fill="#000000" fill-opacity="0.200000" stroke="#000000" stroke-width="2" stroke-opacity="0.200000" points="921.88,-178.27 915.52,-178.21 920.52,-174.29 921.88,-178.27"/>
</g>
<!-- src/hooks/useInitializeData.ts&#45;&gt;src/hooks/imports.ts -->
<g id="edge43" class="edge">
<title>src/hooks/useInitializeData.ts&#45;&gt;src/hooks/imports.ts</title>
<path fill="none" stroke="#000000" stroke-width="2" stroke-opacity="0.200000" d="M830.93,-193C832.12,-193 833.3,-193 834.48,-193"/>
<polygon fill="#000000" fill-opacity="0.200000" stroke="#000000" stroke-width="2" stroke-opacity="0.200000" points="834.28,-195.1 840.28,-193 834.28,-190.9 834.28,-195.1"/>
</g>
<!-- src/main.tsx -->
<g id="node32" class="node">
<title>src/main.tsx</title>
<g id="a_node32"><a xlink:href="src/main.tsx" xlink:title="main.tsx">
<path fill="#bbfeff" stroke="black" d="M64.08,-480.88C64.08,-480.88 21.92,-480.88 21.92,-480.88 18.96,-480.88 16,-477.92 16,-474.96 16,-474.96 16,-469.04 16,-469.04 16,-466.08 18.96,-463.12 21.92,-463.12 21.92,-463.12 64.08,-463.12 64.08,-463.12 67.04,-463.12 70,-466.08 70,-469.04 70,-469.04 70,-474.96 70,-474.96 70,-477.92 67.04,-480.88 64.08,-480.88"/>
<text text-anchor="start" x="26.12" y="-468.32" font-family="Helvetica,sans-Serif" font-size="9.00">main.tsx</text>
</a>
</g>
</g>
<!-- src/pages/CustomerPage.tsx -->
<g id="node33" class="node">
<title>src/pages/CustomerPage.tsx</title>
<g id="a_node33"><a xlink:href="src/pages/CustomerPage.tsx" xlink:title="CustomerPage.tsx">
<path fill="#bbfeff" stroke="black" d="M193.96,-585.88C193.96,-585.88 114.79,-585.88 114.79,-585.88 111.83,-585.88 108.88,-582.92 108.88,-579.96 108.88,-579.96 108.88,-574.04 108.88,-574.04 108.88,-571.08 111.83,-568.12 114.79,-568.12 114.79,-568.12 193.96,-568.12 193.96,-568.12 196.92,-568.12 199.88,-571.08 199.88,-574.04 199.88,-574.04 199.88,-579.96 199.88,-579.96 199.88,-582.92 196.92,-585.88 193.96,-585.88"/>
<text text-anchor="start" x="116.88" y="-573.33" font-family="Helvetica,sans-Serif" font-size="9.00">CustomerPage.tsx</text>
</a>
</g>
</g>
<!-- src/main.tsx&#45;&gt;src/pages/CustomerPage.tsx -->
<g id="edge44" class="edge">
<title>src/main.tsx&#45;&gt;src/pages/CustomerPage.tsx</title>
<path fill="none" stroke="#000000" stroke-width="2" stroke-opacity="0.200000" d="M44.64,-481.31C46.43,-499.75 53.15,-540.94 78,-562 84.28,-567.32 91.91,-570.95 99.87,-573.39"/>
<polygon fill="#000000" fill-opacity="0.200000" stroke="#000000" stroke-width="2" stroke-opacity="0.200000" points="99.33,-575.42 105.66,-574.86 100.36,-571.35 99.33,-575.42"/>
</g>
<!-- src/pages/HomePage.tsx -->
<g id="node34" class="node">
<title>src/pages/HomePage.tsx</title>
<g id="a_node34"><a xlink:href="src/pages/HomePage.tsx" xlink:title="HomePage.tsx">
<path fill="#bbfeff" stroke="black" d="M186.46,-555.88C186.46,-555.88 122.29,-555.88 122.29,-555.88 119.33,-555.88 116.38,-552.92 116.38,-549.96 116.38,-549.96 116.38,-544.04 116.38,-544.04 116.38,-541.08 119.33,-538.12 122.29,-538.12 122.29,-538.12 186.46,-538.12 186.46,-538.12 189.42,-538.12 192.38,-541.08 192.38,-544.04 192.38,-544.04 192.38,-549.96 192.38,-549.96 192.38,-552.92 189.42,-555.88 186.46,-555.88"/>
<text text-anchor="start" x="124.38" y="-543.33" font-family="Helvetica,sans-Serif" font-size="9.00">HomePage.tsx</text>
</a>
</g>
</g>
<!-- src/main.tsx&#45;&gt;src/pages/HomePage.tsx -->
<g id="edge45" class="edge">
<title>src/main.tsx&#45;&gt;src/pages/HomePage.tsx</title>
<path fill="none" stroke="#000000" stroke-width="2" stroke-opacity="0.200000" d="M46.45,-480.94C50.61,-494.29 60.34,-519.24 78,-532 86.53,-538.17 96.97,-541.96 107.32,-544.25"/>
<polygon fill="#000000" fill-opacity="0.200000" stroke="#000000" stroke-width="2" stroke-opacity="0.200000" points="106.69,-546.27 112.97,-545.29 107.46,-542.14 106.69,-546.27"/>
</g>
<!-- src/pages/NotFoundPage.tsx -->
<g id="node35" class="node">
<title>src/pages/NotFoundPage.tsx</title>
<g id="a_node35"><a xlink:href="src/pages/NotFoundPage.tsx" xlink:title="NotFoundPage.tsx">
<path fill="#bbfeff" stroke="black" d="M194.33,-405.88C194.33,-405.88 114.42,-405.88 114.42,-405.88 111.46,-405.88 108.5,-402.92 108.5,-399.96 108.5,-399.96 108.5,-394.04 108.5,-394.04 108.5,-391.08 111.46,-388.12 114.42,-388.12 114.42,-388.12 194.33,-388.12 194.33,-388.12 197.29,-388.12 200.25,-391.08 200.25,-394.04 200.25,-394.04 200.25,-399.96 200.25,-399.96 200.25,-402.92 197.29,-405.88 194.33,-405.88"/>
<text text-anchor="start" x="116.5" y="-393.32" font-family="Helvetica,sans-Serif" font-size="9.00">NotFoundPage.tsx</text>
</a>
</g>
</g>
<!-- src/main.tsx&#45;&gt;src/pages/NotFoundPage.tsx -->
<g id="edge46" class="edge">
<title>src/main.tsx&#45;&gt;src/pages/NotFoundPage.tsx</title>
<path fill="none" stroke="#000000" stroke-width="2" stroke-opacity="0.200000" d="M46.45,-463.06C50.61,-449.71 60.34,-424.76 78,-412 84.43,-407.35 91.95,-404.05 99.69,-401.73"/>
<polygon fill="#000000" fill-opacity="0.200000" stroke="#000000" stroke-width="2" stroke-opacity="0.200000" points="99.92,-403.84 105.21,-400.32 98.88,-399.77 99.92,-403.84"/>
</g>
<!-- src/pages/OrderHistoryPage.tsx -->
<g id="node36" class="node">
<title>src/pages/OrderHistoryPage.tsx</title>
<g id="a_node36"><a xlink:href="src/pages/OrderHistoryPage.tsx" xlink:title="OrderHistoryPage.tsx">
<path fill="#bbfeff" stroke="black" d="M199.96,-525.88C199.96,-525.88 108.79,-525.88 108.79,-525.88 105.83,-525.88 102.88,-522.92 102.88,-519.96 102.88,-519.96 102.88,-514.04 102.88,-514.04 102.88,-511.08 105.83,-508.12 108.79,-508.12 108.79,-508.12 199.96,-508.12 199.96,-508.12 202.92,-508.12 205.88,-511.08 205.88,-514.04 205.88,-514.04 205.88,-519.96 205.88,-519.96 205.88,-522.92 202.92,-525.88 199.96,-525.88"/>
<text text-anchor="start" x="110.88" y="-513.33" font-family="Helvetica,sans-Serif" font-size="9.00">OrderHistoryPage.tsx</text>
</a>
</g>
</g>
<!-- src/main.tsx&#45;&gt;src/pages/OrderHistoryPage.tsx -->
<g id="edge47" class="edge">
<title>src/main.tsx&#45;&gt;src/pages/OrderHistoryPage.tsx</title>
<path fill="none" stroke="#000000" stroke-width="2" stroke-opacity="0.200000" d="M52,-481.31C58.35,-488.11 67.84,-496.97 78,-502 83.14,-504.55 88.68,-506.66 94.34,-508.41"/>
<polygon fill="#000000" fill-opacity="0.200000" stroke="#000000" stroke-width="2" stroke-opacity="0.200000" points="93.43,-510.34 99.78,-509.93 94.56,-506.29 93.43,-510.34"/>
</g>
<!-- src/pages/ProductCatalog.tsx -->
<g id="node37" class="node">
<title>src/pages/ProductCatalog.tsx</title>
<g id="a_node37"><a xlink:href="src/pages/ProductCatalog.tsx" xlink:title="ProductCatalog.tsx">
<path fill="#bbfeff" stroke="black" d="M195.08,-465.88C195.08,-465.88 113.67,-465.88 113.67,-465.88 110.71,-465.88 107.75,-462.92 107.75,-459.96 107.75,-459.96 107.75,-454.04 107.75,-454.04 107.75,-451.08 110.71,-448.12 113.67,-448.12 113.67,-448.12 195.08,-448.12 195.08,-448.12 198.04,-448.12 201,-451.08 201,-454.04 201,-454.04 201,-459.96 201,-459.96 201,-462.92 198.04,-465.88 195.08,-465.88"/>
<text text-anchor="start" x="115.75" y="-453.32" font-family="Helvetica,sans-Serif" font-size="9.00">ProductCatalog.tsx</text>
</a>
</g>
</g>
<!-- src/main.tsx&#45;&gt;src/pages/ProductCatalog.tsx -->
<g id="edge48" class="edge">
<title>src/main.tsx&#45;&gt;src/pages/ProductCatalog.tsx</title>
<path fill="none" stroke="#000000" stroke-width="2" stroke-opacity="0.200000" d="M70.48,-468.37C79.08,-467.19 88.97,-465.83 98.85,-464.48"/>
<polygon fill="#000000" fill-opacity="0.200000" stroke="#000000" stroke-width="2" stroke-opacity="0.200000" points="98.85,-466.6 104.51,-463.7 98.28,-462.44 98.85,-466.6"/>
</g>
<!-- src/pages/ProductManagementPage.tsx -->
<g id="node38" class="node">
<title>src/pages/ProductManagementPage.tsx</title>
<g id="a_node38"><a xlink:href="src/pages/ProductManagementPage.tsx" xlink:title="ProductManagementPage.tsx">
<path fill="#bbfeff" stroke="black" d="M216.83,-435.88C216.83,-435.88 91.92,-435.88 91.92,-435.88 88.96,-435.88 86,-432.92 86,-429.96 86,-429.96 86,-424.04 86,-424.04 86,-421.08 88.96,-418.12 91.92,-418.12 91.92,-418.12 216.83,-418.12 216.83,-418.12 219.79,-418.12 222.75,-421.08 222.75,-424.04 222.75,-424.04 222.75,-429.96 222.75,-429.96 222.75,-432.92 219.79,-435.88 216.83,-435.88"/>
<text text-anchor="start" x="94" y="-423.32" font-family="Helvetica,sans-Serif" font-size="9.00">ProductManagementPage.tsx</text>
</a>
</g>
</g>
<!-- src/main.tsx&#45;&gt;src/pages/ProductManagementPage.tsx -->
<g id="edge49" class="edge">
<title>src/main.tsx&#45;&gt;src/pages/ProductManagementPage.tsx</title>
<path fill="none" stroke="#000000" stroke-width="2" stroke-opacity="0.200000" d="M52,-462.69C58.35,-455.89 67.84,-447.03 78,-442 79.8,-441.11 81.64,-440.27 83.53,-439.49"/>
<polygon fill="#000000" fill-opacity="0.200000" stroke="#000000" stroke-width="2" stroke-opacity="0.200000" points="84.25,-441.46 89.14,-437.4 82.79,-437.52 84.25,-441.46"/>
</g>
<!-- src/pages/ShoppingCart.tsx -->
<g id="node39" class="node">
<title>src/pages/ShoppingCart.tsx</title>
<g id="a_node39"><a xlink:href="src/pages/ShoppingCart.tsx" xlink:title="ShoppingCart.tsx">
<path fill="#bbfeff" stroke="black" d="M191.71,-495.88C191.71,-495.88 117.04,-495.88 117.04,-495.88 114.08,-495.88 111.12,-492.92 111.12,-489.96 111.12,-489.96 111.12,-484.04 111.12,-484.04 111.12,-481.08 114.08,-478.12 117.04,-478.12 117.04,-478.12 191.71,-478.12 191.71,-478.12 194.67,-478.12 197.62,-481.08 197.62,-484.04 197.62,-484.04 197.62,-489.96 197.62,-489.96 197.62,-492.92 194.67,-495.88 191.71,-495.88"/>
<text text-anchor="start" x="119.12" y="-483.32" font-family="Helvetica,sans-Serif" font-size="9.00">ShoppingCart.tsx</text>
</a>
</g>
</g>
<!-- src/main.tsx&#45;&gt;src/pages/ShoppingCart.tsx -->
<g id="edge50" class="edge">
<title>src/main.tsx&#45;&gt;src/pages/ShoppingCart.tsx</title>
<path fill="none" stroke="#000000" stroke-width="2" stroke-opacity="0.200000" d="M70.48,-475.63C80.05,-476.94 91.22,-478.48 102.2,-479.98"/>
<polygon fill="#000000" fill-opacity="0.200000" stroke="#000000" stroke-width="2" stroke-opacity="0.200000" points="101.7,-482.03 107.93,-480.77 102.27,-477.87 101.7,-482.03"/>
</g>
<!-- src/styles.css -->
<g id="node40" class="node">
<title>src/styles.css</title>
<g id="a_node40"><a xlink:href="src/styles.css" xlink:title="styles.css">
<path fill="#ffffcc" stroke="black" d="M175.96,-371.88C175.96,-371.88 132.79,-371.88 132.79,-371.88 129.83,-371.88 126.88,-368.92 126.88,-365.96 126.88,-365.96 126.88,-360.04 126.88,-360.04 126.88,-357.08 129.83,-354.12 132.79,-354.12 132.79,-354.12 175.96,-354.12 175.96,-354.12 178.92,-354.12 181.88,-357.08 181.88,-360.04 181.88,-360.04 181.88,-365.96 181.88,-365.96 181.88,-368.92 178.92,-371.88 175.96,-371.88"/>
<text text-anchor="start" x="134.88" y="-359.32" font-family="Helvetica,sans-Serif" font-size="9.00">styles.css</text>
</a>
</g>
</g>
<!-- src/main.tsx&#45;&gt;src/styles.css -->
<g id="edge51" class="edge">
<title>src/main.tsx&#45;&gt;src/styles.css</title>
<path fill="none" stroke="#000000" stroke-width="2" stroke-opacity="0.200000" d="M44.4,-462.75C45.76,-443.57 51.73,-399.37 78,-377 88.89,-367.73 103.92,-363.77 117.69,-362.3"/>
<polygon fill="#000000" fill-opacity="0.200000" stroke="#000000" stroke-width="2" stroke-opacity="0.200000" points="117.65,-364.41 123.49,-361.89 117.35,-360.22 117.65,-364.41"/>
</g>
<!-- src/pages/CustomerPage.tsx&#45;&gt;src/components/CustomerTable.tsx -->
<g id="edge53" class="edge">
<title>src/pages/CustomerPage.tsx&#45;&gt;src/components/CustomerTable.tsx</title>
<path fill="none" stroke="#000000" stroke-width="2" stroke-opacity="0.200000" d="M200.27,-586C246.21,-592.48 317.18,-594.6 363,-558 435.54,-500.06 443.3,-375.55 443.57,-329.03"/>
<polygon fill="#000000" fill-opacity="0.200000" stroke="#000000" stroke-width="2" stroke-opacity="0.200000" points="445.67,-329.12 443.54,-323.13 441.47,-329.14 445.67,-329.12"/>
</g>
<!-- src/pages/CustomerPage.tsx&#45;&gt;src/components/Navbar.tsx -->
<g id="edge54" class="edge">
<title>src/pages/CustomerPage.tsx&#45;&gt;src/components/Navbar.tsx</title>
<path fill="none" stroke="#000000" stroke-width="2" stroke-opacity="0.200000" d="M200.3,-569.3C210.39,-567.23 221,-564.78 230.75,-562 234.4,-560.96 235.17,-560.27 238.75,-559 293.66,-539.43 328.16,-563.74 363,-517 377.68,-497.3 355.15,-314.78 371,-296 379.46,-285.98 392.71,-281.57 405.56,-279.9"/>
<polygon fill="#000000" fill-opacity="0.200000" stroke="#000000" stroke-width="2" stroke-opacity="0.200000" points="405.52,-282.01 411.32,-279.4 405.16,-277.82 405.52,-282.01"/>
</g>
<!-- src/pages/HomePage.tsx&#45;&gt;src/components/Navbar.tsx -->
<g id="edge55" class="edge">
<title>src/pages/HomePage.tsx&#45;&gt;src/components/Navbar.tsx</title>
<path fill="none" stroke="#000000" stroke-width="2" stroke-opacity="0.200000" d="M192.53,-547.69C240.99,-546.33 324.15,-535.71 363,-482 375.12,-465.24 357.6,-311.76 371,-296 379.43,-286.09 392.54,-281.68 405.29,-279.97"/>
<polygon fill="#000000" fill-opacity="0.200000" stroke="#000000" stroke-width="2" stroke-opacity="0.200000" points="405.2,-282.08 410.99,-279.45 404.82,-277.9 405.2,-282.08"/>
</g>
<!-- src/pages/OrderHistoryPage.tsx&#45;&gt;src/components/Navbar.tsx -->
<g id="edge56" class="edge">
<title>src/pages/OrderHistoryPage.tsx&#45;&gt;src/components/Navbar.tsx</title>
<path fill="none" stroke="#000000" stroke-width="2" stroke-opacity="0.200000" d="M206.3,-515.59C255.64,-511.16 327.99,-495.9 363,-446 382.17,-418.67 349.25,-321.32 371,-296 379.48,-286.13 392.6,-281.73 405.35,-280.01"/>
<polygon fill="#000000" fill-opacity="0.200000" stroke="#000000" stroke-width="2" stroke-opacity="0.200000" points="405.25,-282.13 411.04,-279.5 404.87,-277.95 405.25,-282.13"/>
</g>
<!-- src/pages/OrderHistoryPage.tsx&#45;&gt;src/components/OrderTable.tsx -->
<g id="edge57" class="edge">
<title>src/pages/OrderHistoryPage.tsx&#45;&gt;src/components/OrderTable.tsx</title>
<path fill="none" stroke="#000000" stroke-width="2" stroke-opacity="0.200000" d="M206.02,-515.74C215.33,-513.25 224.17,-509 230.75,-502 248.88,-482.72 226.99,-466.7 238.75,-443 273.43,-373.11 327.8,-388.62 363,-319 373.75,-297.74 354.62,-283.3 371,-266 378.02,-258.59 387.66,-254.34 397.62,-252"/>
<polygon fill="#000000" fill-opacity="0.200000" stroke="#000000" stroke-width="2" stroke-opacity="0.200000" points="397.89,-254.08 403.42,-250.94 397.14,-249.95 397.89,-254.08"/>
</g>
<!-- src/pages/ProductCatalog.tsx&#45;&gt;src/components/Navbar.tsx -->
<g id="edge58" class="edge">
<title>src/pages/ProductCatalog.tsx&#45;&gt;src/components/Navbar.tsx</title>
<path fill="none" stroke="#000000" stroke-width="2" stroke-opacity="0.200000" d="M201.47,-450.26C211.29,-448.15 221.5,-445.44 230.75,-442 294.08,-418.44 325.77,-423.39 363,-367 380.5,-340.5 349.61,-319.47 371,-296 379.76,-286.38 392.95,-282.04 405.66,-280.29"/>
<polygon fill="#000000" fill-opacity="0.200000" stroke="#000000" stroke-width="2" stroke-opacity="0.200000" points="405.54,-282.41 411.32,-279.75 405.14,-278.23 405.54,-282.41"/>
</g>
<!-- src/pages/ProductCatalog.tsx&#45;&gt;src/components/paper/PaperCards.tsx -->
<g id="edge59" class="edge">
<title>src/pages/ProductCatalog.tsx&#45;&gt;src/components/paper/PaperCards.tsx</title>
<path fill="none" stroke="#000000" stroke-width="2" stroke-opacity="0.200000" d="M201.45,-457.38C212.57,-455.15 223.36,-450.61 230.75,-442 243.86,-426.72 234.04,-280.57 238.75,-261 249.45,-216.52 275.05,-168.77 289.49,-144.04"/>
<polygon fill="#000000" fill-opacity="0.200000" stroke="#000000" stroke-width="2" stroke-opacity="0.200000" points="291.29,-145.13 292.55,-138.9 287.68,-142.98 291.29,-145.13"/>
</g>
<!-- src/pages/ProductManagementPage.tsx&#45;&gt;src/components/Navbar.tsx -->
<g id="edge60" class="edge">
<title>src/pages/ProductManagementPage.tsx&#45;&gt;src/components/Navbar.tsx</title>
<path fill="none" stroke="#000000" stroke-width="2" stroke-opacity="0.200000" d="M214.53,-417.7C220.11,-416.09 225.6,-414.21 230.75,-412 296.8,-383.71 319.72,-376.36 363,-319 369.52,-310.36 362.87,-303.14 371,-296 380.45,-287.7 393.28,-283.56 405.5,-281.61"/>
<polygon fill="#000000" fill-opacity="0.200000" stroke="#000000" stroke-width="2" stroke-opacity="0.200000" points="405.53,-283.73 411.24,-280.92 405.03,-279.56 405.53,-283.73"/>
</g>
<!-- src/pages/ProductManagementPage.tsx&#45;&gt;src/components/ParentPaperProperty.tsx -->
<g id="edge62" class="edge">
<title>src/pages/ProductManagementPage.tsx&#45;&gt;src/components/ParentPaperProperty.tsx</title>
<path fill="none" stroke="#000000" stroke-width="2" stroke-opacity="0.200000" d="M85.72,-421.28C80.26,-417.71 76.05,-412.76 74,-406 69.33,-390.58 69.33,-131.42 74,-116 76.3,-108.4 81.36,-103.21 87.88,-99.72"/>
<polygon fill="#000000" fill-opacity="0.200000" stroke="#000000" stroke-width="2" stroke-opacity="0.200000" points="88.56,-101.72 93.33,-97.52 86.98,-97.82 88.56,-101.72"/>
</g>
<!-- src/pages/ProductManagementPage.tsx&#45;&gt;src/components/paper/ProductTable.tsx -->
<g id="edge61" class="edge">
<title>src/pages/ProductManagementPage.tsx&#45;&gt;src/components/paper/ProductTable.tsx</title>
<path fill="none" stroke="#000000" stroke-width="2" stroke-opacity="0.200000" d="M223.17,-418.86C225.96,-416.93 228.52,-414.65 230.75,-412 254.36,-383.93 215.77,-110.58 238.75,-82 242,-77.96 246.14,-74.91 250.73,-72.61"/>
<polygon fill="#000000" fill-opacity="0.200000" stroke="#000000" stroke-width="2" stroke-opacity="0.200000" points="251.18,-74.69 255.99,-70.52 249.64,-70.78 251.18,-74.69"/>
</g>
<!-- src/pages/ShoppingCart.tsx&#45;&gt;src/components/Navbar.tsx -->
<g id="edge63" class="edge">
<title>src/pages/ShoppingCart.tsx&#45;&gt;src/components/Navbar.tsx</title>
<path fill="none" stroke="#000000" stroke-width="2" stroke-opacity="0.200000" d="M197.94,-484.37C247.25,-478.77 326.41,-461.3 363,-407 376.82,-386.49 354.71,-314.61 371,-296 379.57,-286.21 392.71,-281.83 405.45,-280.1"/>
<polygon fill="#000000" fill-opacity="0.200000" stroke="#000000" stroke-width="2" stroke-opacity="0.200000" points="405.35,-282.22 411.13,-279.58 404.96,-278.04 405.35,-282.22"/>
</g>
<!-- src/pages/ShoppingCart.tsx&#45;&gt;src/components/shoppingCart/ShoppingCartPage.tsx -->
<g id="edge64" class="edge">
<title>src/pages/ShoppingCart.tsx&#45;&gt;src/components/shoppingCart/ShoppingCartPage.tsx</title>
<path fill="none" stroke="#000000" stroke-width="2" stroke-opacity="0.200000" d="M197.81,-487.51C209.99,-485.5 222.26,-481.05 230.75,-472 239.95,-462.19 234.97,-424.91 238.75,-412 251.36,-368.91 276.2,-322.06 290.01,-297.76"/>
<polygon fill="#000000" fill-opacity="0.200000" stroke="#000000" stroke-width="2" stroke-opacity="0.200000" points="291.71,-299.02 292.89,-292.77 288.07,-296.92 291.71,-299.02"/>
</g>
</g>
</svg>
