<?xml version="1.0" encoding="UTF-8" standalone="no"?>
<!DOCTYPE svg PUBLIC "-//W3C//DTD SVG 1.1//EN"
 "http://www.w3.org/Graphics/SVG/1.1/DTD/svg11.dtd">
<!-- Generated by graphviz version 12.2.0 (20241103.1931)
 -->
<!-- Title: dependency&#45;cruiser output Pages: 1 -->
<svg width="833pt" height="722pt"
 viewBox="0.00 0.00 833.00 722.00" xmlns="http://www.w3.org/2000/svg" xmlns:xlink="http://www.w3.org/1999/xlink">
<g id="graph0" class="graph" transform="scale(1 1) rotate(0) translate(4 718)">
<title>dependency&#45;cruiser output</title>
<polygon fill="white" stroke="none" points="-4,4 -4,-718 829,-718 829,4 -4,4"/>
<g id="clust1" class="cluster">
<title>cluster_src</title>
<path fill="#ffffff" stroke="black" stroke-width="2" d="M20,-8C20,-8 805,-8 805,-8 811,-8 817,-14 817,-20 817,-20 817,-694 817,-694 817,-700 811,-706 805,-706 805,-706 20,-706 20,-706 14,-706 8,-700 8,-694 8,-694 8,-20 8,-20 8,-14 14,-8 20,-8"/>
<text text-anchor="middle" x="412.5" y="-693.45" font-family="Helvetica,sans-Serif" font-weight="bold" font-size="9.00">src</text>
</g>
<g id="clust2" class="cluster">
<title>cluster_src/assets</title>
<path fill="#ffffff" stroke="black" stroke-width="2" d="M502.62,-286C502.62,-286 607.38,-286 607.38,-286 613.38,-286 619.38,-292 619.38,-298 619.38,-298 619.38,-356 619.38,-356 619.38,-362 613.38,-368 607.38,-368 607.38,-368 502.62,-368 502.62,-368 496.62,-368 490.62,-362 490.62,-356 490.62,-356 490.62,-298 490.62,-298 490.62,-292 496.62,-286 502.62,-286"/>
<text text-anchor="middle" x="555" y="-355.45" font-family="Helvetica,sans-Serif" font-weight="bold" font-size="9.00">assets</text>
</g>
<g id="clust3" class="cluster">
<title>cluster_src/atoms</title>
<path fill="#ffffff" stroke="black" stroke-width="2" d="M532,-40C532,-40 735,-40 735,-40 741,-40 747,-46 747,-52 747,-52 747,-200 747,-200 747,-206 741,-212 735,-212 735,-212 532,-212 532,-212 526,-212 520,-206 520,-200 520,-200 520,-52 520,-52 520,-46 526,-40 532,-40"/>
<text text-anchor="middle" x="633.5" y="-199.45" font-family="Helvetica,sans-Serif" font-weight="bold" font-size="9.00">atoms</text>
</g>
<g id="clust4" class="cluster">
<title>cluster_src/components</title>
<path fill="#ffffff" stroke="black" stroke-width="2" d="M250.75,-376C250.75,-376 624.25,-376 624.25,-376 630.25,-376 636.25,-382 636.25,-388 636.25,-388 636.25,-536 636.25,-536 636.25,-542 630.25,-548 624.25,-548 624.25,-548 250.75,-548 250.75,-548 244.75,-548 238.75,-542 238.75,-536 238.75,-536 238.75,-388 238.75,-388 238.75,-382 244.75,-376 250.75,-376"/>
<text text-anchor="middle" x="437.5" y="-535.45" font-family="Helvetica,sans-Serif" font-weight="bold" font-size="9.00">components</text>
</g>
<g id="clust5" class="cluster">
<title>cluster_src/hooks</title>
<path fill="#ffffff" stroke="black" stroke-width="2" d="M281.62,-628C281.62,-628 578.5,-628 578.5,-628 584.5,-628 590.5,-634 590.5,-640 590.5,-640 590.5,-668 590.5,-668 590.5,-674 584.5,-680 578.5,-680 578.5,-680 281.62,-680 281.62,-680 275.62,-680 269.62,-674 269.62,-668 269.62,-668 269.62,-640 269.62,-640 269.62,-634 275.62,-628 281.62,-628"/>
<text text-anchor="middle" x="430.06" y="-667.45" font-family="Helvetica,sans-Serif" font-weight="bold" font-size="9.00">hooks</text>
</g>
<g id="clust6" class="cluster">
<title>cluster_src/pages</title>
<path fill="#ffffff" stroke="black" stroke-width="2" d="M90,-422C90,-422 218.75,-422 218.75,-422 224.75,-422 230.75,-428 230.75,-434 230.75,-434 230.75,-642 230.75,-642 230.75,-648 224.75,-654 218.75,-654 218.75,-654 90,-654 90,-654 84,-654 78,-648 78,-642 78,-642 78,-434 78,-434 78,-428 84,-422 90,-422"/>
<text text-anchor="middle" x="154.38" y="-641.45" font-family="Helvetica,sans-Serif" font-weight="bold" font-size="9.00">pages</text>
</g>
<!-- src/Api.ts -->
<g id="node1" class="node">
<title>src/Api.ts</title>
<g id="a_node1"><a xlink:href="src/Api.ts" xlink:title="Api.ts">
<path fill="#ddfeff" stroke="black" d="M803.08,-140.88C803.08,-140.88 760.92,-140.88 760.92,-140.88 757.96,-140.88 755,-137.92 755,-134.96 755,-134.96 755,-129.04 755,-129.04 755,-126.08 757.96,-123.12 760.92,-123.12 760.92,-123.12 803.08,-123.12 803.08,-123.12 806.04,-123.12 809,-126.08 809,-129.04 809,-129.04 809,-134.96 809,-134.96 809,-137.92 806.04,-140.88 803.08,-140.88"/>
<text text-anchor="start" x="770.75" y="-128.32" font-family="Helvetica,sans-Serif" font-size="9.00">Api.ts</text>
</a>
</g>
</g>
<!-- src/assets/Account.png -->
<g id="node2" class="node">
<title>src/assets/Account.png</title>
<g id="a_node2"><a xlink:href="src/assets/Account.png" xlink:title="Account.png">
<path fill="#ffffcc" stroke="black" d="M582.58,-311.88C582.58,-311.88 527.42,-311.88 527.42,-311.88 524.46,-311.88 521.5,-308.92 521.5,-305.96 521.5,-305.96 521.5,-300.04 521.5,-300.04 521.5,-297.08 524.46,-294.12 527.42,-294.12 527.42,-294.12 582.58,-294.12 582.58,-294.12 585.54,-294.12 588.5,-297.08 588.5,-300.04 588.5,-300.04 588.5,-305.96 588.5,-305.96 588.5,-308.92 585.54,-311.88 582.58,-311.88"/>
<text text-anchor="start" x="529.5" y="-299.32" font-family="Helvetica,sans-Serif" font-size="9.00">Account.png</text>
</a>
</g>
</g>
<!-- src/assets/DunderMifflin&#45;Logo.png -->
<g id="node3" class="node">
<title>src/assets/DunderMifflin&#45;Logo.png</title>
<g id="a_node3"><a xlink:href="src/assets/DunderMifflin-Logo.png" xlink:title="DunderMifflin&#45;Logo.png">
<path fill="#ffffcc" stroke="black" d="M605.46,-341.88C605.46,-341.88 504.54,-341.88 504.54,-341.88 501.58,-341.88 498.62,-338.92 498.62,-335.96 498.62,-335.96 498.62,-330.04 498.62,-330.04 498.62,-327.08 501.58,-324.12 504.54,-324.12 504.54,-324.12 605.46,-324.12 605.46,-324.12 608.42,-324.12 611.38,-327.08 611.38,-330.04 611.38,-330.04 611.38,-335.96 611.38,-335.96 611.38,-338.92 608.42,-341.88 605.46,-341.88"/>
<text text-anchor="start" x="506.62" y="-329.32" font-family="Helvetica,sans-Serif" font-size="9.00">DunderMifflin&#45;Logo.png</text>
</a>
</g>
</g>
<!-- src/atoms/CustomerAtom.tsx -->
<g id="node4" class="node">
<title>src/atoms/CustomerAtom.tsx</title>
<g id="a_node4"><a xlink:href="src/atoms/CustomerAtom.tsx" xlink:title="CustomerAtom.tsx">
<path fill="#bbfeff" stroke="black" d="M730.83,-65.88C730.83,-65.88 652.42,-65.88 652.42,-65.88 649.46,-65.88 646.5,-62.92 646.5,-59.96 646.5,-59.96 646.5,-54.04 646.5,-54.04 646.5,-51.08 649.46,-48.12 652.42,-48.12 652.42,-48.12 730.83,-48.12 730.83,-48.12 733.79,-48.12 736.75,-51.08 736.75,-54.04 736.75,-54.04 736.75,-59.96 736.75,-59.96 736.75,-62.92 733.79,-65.88 730.83,-65.88"/>
<text text-anchor="start" x="654.5" y="-53.33" font-family="Helvetica,sans-Serif" font-size="9.00">CustomerAtom.tsx</text>
</a>
</g>
</g>
<!-- src/atoms/CustomerAtom.tsx&#45;&gt;src/Api.ts -->
<g id="edge1" class="edge">
<title>src/atoms/CustomerAtom.tsx&#45;&gt;src/Api.ts</title>
<path fill="none" stroke="#000000" stroke-width="2" stroke-opacity="0.200000" d="M737.11,-66C740.63,-67.67 743.99,-69.65 747,-72 760.81,-82.77 769.94,-100.81 775.23,-114.31"/>
<polygon fill="#000000" fill-opacity="0.200000" stroke="#000000" stroke-width="2" stroke-opacity="0.200000" points="773.24,-115 777.26,-119.93 777.19,-113.58 773.24,-115"/>
</g>
<!-- src/atoms/OrderAtom.tsx -->
<g id="node5" class="node">
<title>src/atoms/OrderAtom.tsx</title>
<g id="a_node5"><a xlink:href="src/atoms/OrderAtom.tsx" xlink:title="OrderAtom.tsx">
<path fill="#bbfeff" stroke="black" d="M722.58,-95.88C722.58,-95.88 660.67,-95.88 660.67,-95.88 657.71,-95.88 654.75,-92.92 654.75,-89.96 654.75,-89.96 654.75,-84.04 654.75,-84.04 654.75,-81.08 657.71,-78.12 660.67,-78.12 660.67,-78.12 722.58,-78.12 722.58,-78.12 725.54,-78.12 728.5,-81.08 728.5,-84.04 728.5,-84.04 728.5,-89.96 728.5,-89.96 728.5,-92.92 725.54,-95.88 722.58,-95.88"/>
<text text-anchor="start" x="662.75" y="-83.33" font-family="Helvetica,sans-Serif" font-size="9.00">OrderAtom.tsx</text>
</a>
</g>
</g>
<!-- src/atoms/OrderAtom.tsx&#45;&gt;src/Api.ts -->
<g id="edge2" class="edge">
<title>src/atoms/OrderAtom.tsx&#45;&gt;src/Api.ts</title>
<path fill="none" stroke="#000000" stroke-width="2" stroke-opacity="0.200000" d="M728.92,-94.53C735.14,-96.51 741.4,-98.97 747,-102 754.17,-105.88 761.09,-111.52 766.81,-116.87"/>
<polygon fill="#000000" fill-opacity="0.200000" stroke="#000000" stroke-width="2" stroke-opacity="0.200000" points="765,-118.04 770.74,-120.77 767.95,-115.06 765,-118.04"/>
</g>
<!-- src/atoms/OrderEntryAtom.tsx -->
<g id="node6" class="node">
<title>src/atoms/OrderEntryAtom.tsx</title>
<g id="a_node6"><a xlink:href="src/atoms/OrderEntryAtom.tsx" xlink:title="OrderEntryAtom.tsx">
<path fill="#bbfeff" stroke="black" d="M733.08,-125.88C733.08,-125.88 650.17,-125.88 650.17,-125.88 647.21,-125.88 644.25,-122.92 644.25,-119.96 644.25,-119.96 644.25,-114.04 644.25,-114.04 644.25,-111.08 647.21,-108.12 650.17,-108.12 650.17,-108.12 733.08,-108.12 733.08,-108.12 736.04,-108.12 739,-111.08 739,-114.04 739,-114.04 739,-119.96 739,-119.96 739,-122.92 736.04,-125.88 733.08,-125.88"/>
<text text-anchor="start" x="652.25" y="-113.33" font-family="Helvetica,sans-Serif" font-size="9.00">OrderEntryAtom.tsx</text>
</a>
</g>
</g>
<!-- src/atoms/OrderEntryAtom.tsx&#45;&gt;src/Api.ts -->
<g id="edge3" class="edge">
<title>src/atoms/OrderEntryAtom.tsx&#45;&gt;src/Api.ts</title>
<path fill="none" stroke="#000000" stroke-width="2" stroke-opacity="0.200000" d="M739.4,-124.94C741.72,-125.33 744.03,-125.72 746.3,-126.11"/>
<polygon fill="#000000" fill-opacity="0.200000" stroke="#000000" stroke-width="2" stroke-opacity="0.200000" points="745.59,-128.12 751.86,-127.05 746.29,-123.98 745.59,-128.12"/>
</g>
<!-- src/atoms/PaperAtom.tsx -->
<g id="node7" class="node">
<title>src/atoms/PaperAtom.tsx</title>
<g id="a_node7"><a xlink:href="src/atoms/PaperAtom.tsx" xlink:title="PaperAtom.tsx">
<path fill="#bbfeff" stroke="black" d="M723.33,-155.88C723.33,-155.88 659.92,-155.88 659.92,-155.88 656.96,-155.88 654,-152.92 654,-149.96 654,-149.96 654,-144.04 654,-144.04 654,-141.08 656.96,-138.12 659.92,-138.12 659.92,-138.12 723.33,-138.12 723.33,-138.12 726.29,-138.12 729.25,-141.08 729.25,-144.04 729.25,-144.04 729.25,-149.96 729.25,-149.96 729.25,-152.92 726.29,-155.88 723.33,-155.88"/>
<text text-anchor="start" x="662" y="-143.32" font-family="Helvetica,sans-Serif" font-size="9.00">PaperAtom.tsx</text>
</a>
</g>
</g>
<!-- src/atoms/PaperAtom.tsx&#45;&gt;src/Api.ts -->
<g id="edge4" class="edge">
<title>src/atoms/PaperAtom.tsx&#45;&gt;src/Api.ts</title>
<path fill="none" stroke="#000000" stroke-width="2" stroke-opacity="0.200000" d="M729.59,-140.73C734.99,-139.81 740.53,-138.87 745.88,-137.96"/>
<polygon fill="#000000" fill-opacity="0.200000" stroke="#000000" stroke-width="2" stroke-opacity="0.200000" points="746.11,-140.05 751.68,-136.98 745.41,-135.91 746.11,-140.05"/>
</g>
<!-- src/atoms/PropertyAtom.tsx -->
<g id="node8" class="node">
<title>src/atoms/PropertyAtom.tsx</title>
<g id="a_node8"><a xlink:href="src/atoms/PropertyAtom.tsx" xlink:title="PropertyAtom.tsx">
<path fill="#bbfeff" stroke="black" d="M728.21,-185.88C728.21,-185.88 655.04,-185.88 655.04,-185.88 652.08,-185.88 649.12,-182.92 649.12,-179.96 649.12,-179.96 649.12,-174.04 649.12,-174.04 649.12,-171.08 652.08,-168.12 655.04,-168.12 655.04,-168.12 728.21,-168.12 728.21,-168.12 731.17,-168.12 734.12,-171.08 734.12,-174.04 734.12,-174.04 734.12,-179.96 734.12,-179.96 734.12,-182.92 731.17,-185.88 728.21,-185.88"/>
<text text-anchor="start" x="657.12" y="-173.32" font-family="Helvetica,sans-Serif" font-size="9.00">PropertyAtom.tsx</text>
</a>
</g>
</g>
<!-- src/atoms/PropertyAtom.tsx&#45;&gt;src/Api.ts -->
<g id="edge5" class="edge">
<title>src/atoms/PropertyAtom.tsx&#45;&gt;src/Api.ts</title>
<path fill="none" stroke="#000000" stroke-width="2" stroke-opacity="0.200000" d="M734.08,-167.71C738.56,-166.08 742.95,-164.19 747,-162 754.17,-158.12 761.09,-152.48 766.81,-147.13"/>
<polygon fill="#000000" fill-opacity="0.200000" stroke="#000000" stroke-width="2" stroke-opacity="0.200000" points="767.95,-148.94 770.74,-143.23 765,-145.96 767.95,-148.94"/>
</g>
<!-- src/atoms/index.ts -->
<g id="node9" class="node">
<title>src/atoms/index.ts</title>
<g id="a_node9"><a xlink:href="src/atoms/index.ts" xlink:title="index.ts">
<path fill="#ddfeff" stroke="black" d="M576.08,-173.88C576.08,-173.88 533.92,-173.88 533.92,-173.88 530.96,-173.88 528,-170.92 528,-167.96 528,-167.96 528,-162.04 528,-162.04 528,-159.08 530.96,-156.12 533.92,-156.12 533.92,-156.12 576.08,-156.12 576.08,-156.12 579.04,-156.12 582,-159.08 582,-162.04 582,-162.04 582,-167.96 582,-167.96 582,-170.92 579.04,-173.88 576.08,-173.88"/>
<text text-anchor="start" x="539.25" y="-161.32" font-family="Helvetica,sans-Serif" font-size="9.00">index.ts</text>
</a>
</g>
</g>
<!-- src/atoms/index.ts&#45;&gt;src/atoms/CustomerAtom.tsx -->
<g id="edge6" class="edge">
<title>src/atoms/index.ts&#45;&gt;src/atoms/CustomerAtom.tsx</title>
<path fill="none" stroke="#000000" stroke-width="2" stroke-opacity="0.200000" d="M562.19,-155.9C575.22,-137.42 607.34,-95.26 644.25,-72 645.75,-71.05 647.32,-70.16 648.94,-69.32"/>
<polygon fill="#000000" fill-opacity="0.200000" stroke="#000000" stroke-width="2" stroke-opacity="0.200000" points="655.32,-68.65 648.99,-69.29 653.54,-64.85 655.32,-68.65"/>
</g>
<!-- src/atoms/index.ts&#45;&gt;src/atoms/OrderAtom.tsx -->
<g id="edge7" class="edge">
<title>src/atoms/index.ts&#45;&gt;src/atoms/OrderAtom.tsx</title>
<path fill="none" stroke="#000000" stroke-width="2" stroke-opacity="0.200000" d="M580.37,-155.73C597.79,-148.08 620.79,-135.76 636.25,-119 641.91,-112.86 637.98,-107.52 644.25,-102 645.58,-100.83 647.01,-99.74 648.51,-98.75"/>
<polygon fill="#000000" fill-opacity="0.200000" stroke="#000000" stroke-width="2" stroke-opacity="0.200000" points="654.74,-97.62 648.48,-98.76 652.66,-93.97 654.74,-97.62"/>
</g>
<!-- src/atoms/index.ts&#45;&gt;src/atoms/OrderEntryAtom.tsx -->
<g id="edge8" class="edge">
<title>src/atoms/index.ts&#45;&gt;src/atoms/OrderEntryAtom.tsx</title>
<path fill="none" stroke="#000000" stroke-width="2" stroke-opacity="0.200000" d="M579.87,-155.74C597.56,-148.96 622.32,-139.64 644.25,-132 647.56,-130.85 651.02,-129.67 654.48,-128.52"/>
<polygon fill="#000000" fill-opacity="0.200000" stroke="#000000" stroke-width="2" stroke-opacity="0.200000" points="660.83,-128.63 654.47,-128.52 659.51,-124.64 660.83,-128.63"/>
</g>
<!-- src/atoms/index.ts&#45;&gt;src/atoms/PaperAtom.tsx -->
<g id="edge9" class="edge">
<title>src/atoms/index.ts&#45;&gt;src/atoms/PaperAtom.tsx</title>
<path fill="none" stroke="#000000" stroke-width="2" stroke-opacity="0.200000" d="M582.28,-161.49C600.56,-159.04 625.39,-155.72 646.66,-152.88"/>
<polygon fill="#000000" fill-opacity="0.200000" stroke="#000000" stroke-width="2" stroke-opacity="0.200000" points="653.01,-154.15 646.78,-152.86 652.45,-149.99 653.01,-154.15"/>
</g>
<!-- src/atoms/index.ts&#45;&gt;src/atoms/PropertyAtom.tsx -->
<g id="edge10" class="edge">
<title>src/atoms/index.ts&#45;&gt;src/atoms/PropertyAtom.tsx</title>
<path fill="none" stroke="#000000" stroke-width="2" stroke-opacity="0.200000" d="M582.28,-167.34C599.18,-168.85 621.68,-170.85 641.78,-172.65"/>
<polygon fill="#000000" fill-opacity="0.200000" stroke="#000000" stroke-width="2" stroke-opacity="0.200000" points="647.6,-175.27 641.81,-172.65 647.98,-171.09 647.6,-175.27"/>
</g>
<!-- src/components/CreatePaper.tsx -->
<g id="node10" class="node">
<title>src/components/CreatePaper.tsx</title>
<g id="a_node10"><a xlink:href="src/components/CreatePaper.tsx" xlink:title="CreatePaper.tsx">
<path fill="#bbfeff" stroke="black" d="M457.21,-491.88C457.21,-491.88 387.04,-491.88 387.04,-491.88 384.08,-491.88 381.12,-488.92 381.12,-485.96 381.12,-485.96 381.12,-480.04 381.12,-480.04 381.12,-477.08 384.08,-474.12 387.04,-474.12 387.04,-474.12 457.21,-474.12 457.21,-474.12 460.17,-474.12 463.12,-477.08 463.12,-480.04 463.12,-480.04 463.12,-485.96 463.12,-485.96 463.12,-488.92 460.17,-491.88 457.21,-491.88"/>
<text text-anchor="start" x="389.12" y="-479.32" font-family="Helvetica,sans-Serif" font-size="9.00">CreatePaper.tsx</text>
</a>
</g>
</g>
<!-- src/components/CreatePaper.tsx&#45;&gt;src/atoms/PaperAtom.tsx -->
<g id="edge11" class="edge">
<title>src/components/CreatePaper.tsx&#45;&gt;src/atoms/PaperAtom.tsx</title>
<path fill="none" stroke="#000000" stroke-width="2" stroke-opacity="0.200000" d="M462.65,-473.79C464.95,-472.16 467.02,-470.25 468.75,-468 499.02,-428.65 451.39,-284.28 481.75,-245 525.89,-187.9 587.17,-247.92 636.25,-195 646.51,-183.94 633.99,-173.06 644.25,-162 644.91,-161.29 645.61,-160.61 646.33,-159.96"/>
<polygon fill="#000000" fill-opacity="0.200000" stroke="#000000" stroke-width="2" stroke-opacity="0.200000" points="647.32,-161.83 651.06,-156.68 644.93,-158.38 647.32,-161.83"/>
</g>
<!-- src/http.ts -->
<g id="node11" class="node">
<title>src/http.ts</title>
<g id="a_node11"><a xlink:href="src/http.ts" xlink:title="http.ts">
<path fill="#ddfeff" stroke="black" d="M712.71,-520.88C712.71,-520.88 670.54,-520.88 670.54,-520.88 667.58,-520.88 664.62,-517.92 664.62,-514.96 664.62,-514.96 664.62,-509.04 664.62,-509.04 664.62,-506.08 667.58,-503.12 670.54,-503.12 670.54,-503.12 712.71,-503.12 712.71,-503.12 715.67,-503.12 718.62,-506.08 718.62,-509.04 718.62,-509.04 718.62,-514.96 718.62,-514.96 718.62,-517.92 715.67,-520.88 712.71,-520.88"/>
<text text-anchor="start" x="679.62" y="-508.32" font-family="Helvetica,sans-Serif" font-size="9.00">http.ts</text>
</a>
</g>
</g>
<!-- src/components/CreatePaper.tsx&#45;&gt;src/http.ts -->
<g id="edge12" class="edge">
<title>src/components/CreatePaper.tsx&#45;&gt;src/http.ts</title>
<path fill="none" stroke="#000000" stroke-width="2" stroke-opacity="0.200000" d="M456.66,-492.36C460.84,-494.01 464.97,-495.88 468.75,-498 475.36,-501.69 474.66,-506.35 481.75,-509 512.59,-520.55 604.78,-517.22 655.76,-514.31"/>
<polygon fill="#000000" fill-opacity="0.200000" stroke="#000000" stroke-width="2" stroke-opacity="0.200000" points="655.59,-516.43 661.46,-513.98 655.34,-512.23 655.59,-516.43"/>
</g>
<!-- src/components/ProductModal.tsx -->
<g id="node12" class="node">
<title>src/components/ProductModal.tsx</title>
<g id="a_node12"><a xlink:href="src/components/ProductModal.tsx" xlink:title="ProductModal.tsx">
<path fill="#bbfeff" stroke="black" d="M592.33,-461.88C592.33,-461.88 517.67,-461.88 517.67,-461.88 514.71,-461.88 511.75,-458.92 511.75,-455.96 511.75,-455.96 511.75,-450.04 511.75,-450.04 511.75,-447.08 514.71,-444.12 517.67,-444.12 517.67,-444.12 592.33,-444.12 592.33,-444.12 595.29,-444.12 598.25,-447.08 598.25,-450.04 598.25,-450.04 598.25,-455.96 598.25,-455.96 598.25,-458.92 595.29,-461.88 592.33,-461.88"/>
<text text-anchor="start" x="519.75" y="-449.32" font-family="Helvetica,sans-Serif" font-size="9.00">ProductModal.tsx</text>
</a>
</g>
</g>
<!-- src/components/CreatePaper.tsx&#45;&gt;src/components/ProductModal.tsx -->
<g id="edge13" class="edge">
<title>src/components/CreatePaper.tsx&#45;&gt;src/components/ProductModal.tsx</title>
<path fill="none" stroke="#000000" stroke-width="2" stroke-opacity="0.200000" d="M458.4,-473.7C466.08,-471.75 474.18,-469.75 481.75,-468 488.66,-466.4 495.95,-464.79 503.15,-463.25"/>
<polygon fill="#000000" fill-opacity="0.200000" stroke="#000000" stroke-width="2" stroke-opacity="0.200000" points="503.13,-465.4 508.56,-462.11 502.26,-461.29 503.13,-465.4"/>
</g>
<!-- src/http.ts&#45;&gt;src/Api.ts -->
<g id="edge48" class="edge">
<title>src/http.ts&#45;&gt;src/Api.ts</title>
<path fill="none" stroke="#000000" stroke-width="2" stroke-opacity="0.200000" d="M696.74,-502.79C706.87,-479.74 733.21,-417.46 747,-363 766.77,-284.92 776.33,-188.88 779.62,-149.8"/>
<polygon fill="#000000" fill-opacity="0.200000" stroke="#000000" stroke-width="2" stroke-opacity="0.200000" points="781.71,-150.11 780.1,-143.96 777.52,-149.77 781.71,-150.11"/>
</g>
<!-- src/components/CreateProperty.tsx -->
<g id="node13" class="node">
<title>src/components/CreateProperty.tsx</title>
<g id="a_node13"><a xlink:href="src/components/CreateProperty.tsx" xlink:title="CreateProperty.tsx">
<path fill="#bbfeff" stroke="black" d="M462.08,-461.88C462.08,-461.88 382.17,-461.88 382.17,-461.88 379.21,-461.88 376.25,-458.92 376.25,-455.96 376.25,-455.96 376.25,-450.04 376.25,-450.04 376.25,-447.08 379.21,-444.12 382.17,-444.12 382.17,-444.12 462.08,-444.12 462.08,-444.12 465.04,-444.12 468,-447.08 468,-450.04 468,-450.04 468,-455.96 468,-455.96 468,-458.92 465.04,-461.88 462.08,-461.88"/>
<text text-anchor="start" x="384.25" y="-449.32" font-family="Helvetica,sans-Serif" font-size="9.00">CreateProperty.tsx</text>
</a>
</g>
</g>
<!-- src/components/CreateProperty.tsx&#45;&gt;src/atoms/PropertyAtom.tsx -->
<g id="edge14" class="edge">
<title>src/components/CreateProperty.tsx&#45;&gt;src/atoms/PropertyAtom.tsx</title>
<path fill="none" stroke="#000000" stroke-width="2" stroke-opacity="0.200000" d="M462.6,-443.75C464.91,-442.13 467,-440.23 468.75,-438 491.47,-409.08 461.33,-303.59 481.75,-273 482.45,-271.95 643.07,-190.46 644.25,-190 645,-189.71 645.76,-189.42 646.52,-189.13"/>
<polygon fill="#000000" fill-opacity="0.200000" stroke="#000000" stroke-width="2" stroke-opacity="0.200000" points="647.09,-191.16 652.08,-187.21 645.72,-187.19 647.09,-191.16"/>
</g>
<!-- src/components/CreateProperty.tsx&#45;&gt;src/http.ts -->
<g id="edge15" class="edge">
<title>src/components/CreateProperty.tsx&#45;&gt;src/http.ts</title>
<path fill="none" stroke="#000000" stroke-width="2" stroke-opacity="0.200000" d="M460.49,-462.21C463.48,-463.84 466.29,-465.75 468.75,-468 479.48,-477.8 469.88,-489.62 481.75,-498 488.73,-502.92 598.04,-508.16 655.67,-510.6"/>
<polygon fill="#000000" fill-opacity="0.200000" stroke="#000000" stroke-width="2" stroke-opacity="0.200000" points="655.34,-512.69 661.43,-510.84 655.52,-508.49 655.34,-512.69"/>
</g>
<!-- src/components/PropertyModal.tsx -->
<g id="node14" class="node">
<title>src/components/PropertyModal.tsx</title>
<g id="a_node14"><a xlink:href="src/components/PropertyModal.tsx" xlink:title="PropertyModal.tsx">
<path fill="#bbfeff" stroke="black" d="M593.83,-431.88C593.83,-431.88 516.17,-431.88 516.17,-431.88 513.21,-431.88 510.25,-428.92 510.25,-425.96 510.25,-425.96 510.25,-420.04 510.25,-420.04 510.25,-417.08 513.21,-414.12 516.17,-414.12 516.17,-414.12 593.83,-414.12 593.83,-414.12 596.79,-414.12 599.75,-417.08 599.75,-420.04 599.75,-420.04 599.75,-425.96 599.75,-425.96 599.75,-428.92 596.79,-431.88 593.83,-431.88"/>
<text text-anchor="start" x="518.25" y="-419.32" font-family="Helvetica,sans-Serif" font-size="9.00">PropertyModal.tsx</text>
</a>
</g>
</g>
<!-- src/components/CreateProperty.tsx&#45;&gt;src/components/PropertyModal.tsx -->
<g id="edge16" class="edge">
<title>src/components/CreateProperty.tsx&#45;&gt;src/components/PropertyModal.tsx</title>
<path fill="none" stroke="#000000" stroke-width="2" stroke-opacity="0.200000" d="M458.4,-443.7C466.08,-441.75 474.18,-439.75 481.75,-438 488.16,-436.52 494.9,-435.02 501.58,-433.59"/>
<polygon fill="#000000" fill-opacity="0.200000" stroke="#000000" stroke-width="2" stroke-opacity="0.200000" points="501.6,-435.73 507.03,-432.43 500.72,-431.62 501.6,-435.73"/>
</g>
<!-- src/components/CustomerTable.tsx -->
<g id="node15" class="node">
<title>src/components/CustomerTable.tsx</title>
<g id="a_node15"><a xlink:href="src/components/CustomerTable.tsx" xlink:title="CustomerTable.tsx">
<path fill="#bbfeff" stroke="black" d="M344.58,-401.88C344.58,-401.88 264.67,-401.88 264.67,-401.88 261.71,-401.88 258.75,-398.92 258.75,-395.96 258.75,-395.96 258.75,-390.04 258.75,-390.04 258.75,-387.08 261.71,-384.12 264.67,-384.12 264.67,-384.12 344.58,-384.12 344.58,-384.12 347.54,-384.12 350.5,-387.08 350.5,-390.04 350.5,-390.04 350.5,-395.96 350.5,-395.96 350.5,-398.92 347.54,-401.88 344.58,-401.88"/>
<text text-anchor="start" x="266.75" y="-389.32" font-family="Helvetica,sans-Serif" font-size="9.00">CustomerTable.tsx</text>
</a>
</g>
</g>
<!-- src/components/CustomerTable.tsx&#45;&gt;src/atoms/CustomerAtom.tsx -->
<g id="edge17" class="edge">
<title>src/components/CustomerTable.tsx&#45;&gt;src/atoms/CustomerAtom.tsx</title>
<path fill="none" stroke="#000000" stroke-width="2" stroke-opacity="0.200000" d="M306.15,-383.73C309.08,-335.23 325.25,-111.17 375.5,-69 454.6,-2.61 588.22,-27.54 653.07,-45.26"/>
<polygon fill="#000000" fill-opacity="0.200000" stroke="#000000" stroke-width="2" stroke-opacity="0.200000" points="652.5,-47.28 658.84,-46.88 653.63,-43.24 652.5,-47.28"/>
</g>
<!-- src/components/Navbar.tsx -->
<g id="node16" class="node">
<title>src/components/Navbar.tsx</title>
<g id="a_node16"><a xlink:href="src/components/Navbar.tsx" xlink:title="Navbar.tsx">
<path fill="#bbfeff" stroke="black" d="M445.96,-431.88C445.96,-431.88 398.29,-431.88 398.29,-431.88 395.33,-431.88 392.38,-428.92 392.38,-425.96 392.38,-425.96 392.38,-420.04 392.38,-420.04 392.38,-417.08 395.33,-414.12 398.29,-414.12 398.29,-414.12 445.96,-414.12 445.96,-414.12 448.92,-414.12 451.88,-417.08 451.88,-420.04 451.88,-420.04 451.88,-425.96 451.88,-425.96 451.88,-428.92 448.92,-431.88 445.96,-431.88"/>
<text text-anchor="start" x="400.38" y="-419.32" font-family="Helvetica,sans-Serif" font-size="9.00">Navbar.tsx</text>
</a>
</g>
</g>
<!-- src/components/Navbar.tsx&#45;&gt;src/Api.ts -->
<g id="edge18" class="edge">
<title>src/components/Navbar.tsx&#45;&gt;src/Api.ts</title>
<path fill="none" stroke="#000000" stroke-width="2" stroke-opacity="0.200000" d="M424.16,-413.86C427.5,-388.86 440.28,-318.83 481.75,-283 573.84,-203.43 655.22,-294.93 747,-215 766.2,-198.28 774.74,-169.06 778.41,-150.13"/>
<polygon fill="#000000" fill-opacity="0.200000" stroke="#000000" stroke-width="2" stroke-opacity="0.200000" points="780.47,-150.54 779.41,-144.27 776.33,-149.83 780.47,-150.54"/>
</g>
<!-- src/components/Navbar.tsx&#45;&gt;src/assets/Account.png -->
<g id="edge19" class="edge">
<title>src/components/Navbar.tsx&#45;&gt;src/assets/Account.png</title>
<path fill="none" stroke="#000000" stroke-width="2" stroke-opacity="0.200000" d="M452.03,-420.06C458.34,-418.1 464.42,-414.97 468.75,-410 495.88,-378.87 453.5,-348.12 481.75,-318 489.71,-309.51 501.12,-305.16 512.53,-303.07"/>
<polygon fill="#000000" fill-opacity="0.200000" stroke="#000000" stroke-width="2" stroke-opacity="0.200000" points="512.53,-305.19 518.19,-302.3 511.96,-301.03 512.53,-305.19"/>
</g>
<!-- src/components/Navbar.tsx&#45;&gt;src/assets/DunderMifflin&#45;Logo.png -->
<g id="edge20" class="edge">
<title>src/components/Navbar.tsx&#45;&gt;src/assets/DunderMifflin&#45;Logo.png</title>
<path fill="none" stroke="#000000" stroke-width="2" stroke-opacity="0.200000" d="M452.31,-419.12C458.32,-417.18 464.19,-414.29 468.75,-410 481.44,-398.05 470.5,-386.31 481.75,-373 491.63,-361.3 505.85,-352.4 519.06,-346"/>
<polygon fill="#000000" fill-opacity="0.200000" stroke="#000000" stroke-width="2" stroke-opacity="0.200000" points="519.77,-347.99 524.36,-343.59 518.03,-344.16 519.77,-347.99"/>
</g>
<!-- src/components/Navbar.tsx&#45;&gt;src/atoms/OrderEntryAtom.tsx -->
<g id="edge21" class="edge">
<title>src/components/Navbar.tsx&#45;&gt;src/atoms/OrderEntryAtom.tsx</title>
<path fill="none" stroke="#000000" stroke-width="2" stroke-opacity="0.200000" d="M424.2,-413.84C428.86,-375.73 448.6,-230.3 481.75,-201 533.67,-155.11 586.52,-228.26 636.25,-180 650.07,-166.59 634.42,-151.98 645.38,-133.39"/>
<polygon fill="#000000" fill-opacity="0.200000" stroke="#000000" stroke-width="2" stroke-opacity="0.200000" points="646.93,-134.82 648.89,-128.77 643.59,-132.28 646.93,-134.82"/>
</g>
<!-- src/hooks/useInitializeData.ts -->
<g id="node17" class="node">
<title>src/hooks/useInitializeData.ts</title>
<g id="a_node17"><a xlink:href="src/hooks/useInitializeData.ts" xlink:title="useInitializeData.ts">
<path fill="#ddfeff" stroke="black" d="M462.83,-653.88C462.83,-653.88 381.42,-653.88 381.42,-653.88 378.46,-653.88 375.5,-650.92 375.5,-647.96 375.5,-647.96 375.5,-642.04 375.5,-642.04 375.5,-639.08 378.46,-636.12 381.42,-636.12 381.42,-636.12 462.83,-636.12 462.83,-636.12 465.79,-636.12 468.75,-639.08 468.75,-642.04 468.75,-642.04 468.75,-647.96 468.75,-647.96 468.75,-650.92 465.79,-653.88 462.83,-653.88"/>
<text text-anchor="start" x="383.5" y="-641.33" font-family="Helvetica,sans-Serif" font-size="9.00">useInitializeData.ts</text>
</a>
</g>
</g>
<!-- src/components/Navbar.tsx&#45;&gt;src/hooks/useInitializeData.ts -->
<g id="edge22" class="edge">
<title>src/components/Navbar.tsx&#45;&gt;src/hooks/useInitializeData.ts</title>
<path fill="none" stroke="#000000" stroke-width="2" stroke-opacity="0.200000" d="M391.99,-426.6C382.32,-429.52 373.06,-434.73 369,-444 360,-464.56 363.57,-523.22 369,-545 376.9,-576.71 396.94,-609.41 410.03,-628.44"/>
<polygon fill="#000000" fill-opacity="0.200000" stroke="#000000" stroke-width="2" stroke-opacity="0.200000" points="408.24,-629.54 413.41,-633.24 411.67,-627.12 408.24,-629.54"/>
</g>
<!-- src/components/getTotalCost.ts -->
<g id="node18" class="node">
<title>src/components/getTotalCost.ts</title>
<g id="a_node18"><a xlink:href="src/components/getTotalCost.ts" xlink:title="getTotalCost.ts">
<path fill="#ddfeff" stroke="black" d="M587.08,-401.88C587.08,-401.88 522.92,-401.88 522.92,-401.88 519.96,-401.88 517,-398.92 517,-395.96 517,-395.96 517,-390.04 517,-390.04 517,-387.08 519.96,-384.12 522.92,-384.12 522.92,-384.12 587.08,-384.12 587.08,-384.12 590.04,-384.12 593,-387.08 593,-390.04 593,-390.04 593,-395.96 593,-395.96 593,-398.92 590.04,-401.88 587.08,-401.88"/>
<text text-anchor="start" x="525" y="-389.32" font-family="Helvetica,sans-Serif" font-size="9.00">getTotalCost.ts</text>
</a>
</g>
</g>
<!-- src/components/Navbar.tsx&#45;&gt;src/components/getTotalCost.ts -->
<g id="edge23" class="edge">
<title>src/components/Navbar.tsx&#45;&gt;src/components/getTotalCost.ts</title>
<path fill="none" stroke="#000000" stroke-width="2" stroke-opacity="0.200000" d="M452.28,-415.26C461.67,-412.84 472.13,-410.23 481.75,-408 490.27,-406.03 499.38,-404.04 508.16,-402.19"/>
<polygon fill="#000000" fill-opacity="0.200000" stroke="#000000" stroke-width="2" stroke-opacity="0.200000" points="508.39,-404.28 513.84,-401 507.54,-400.17 508.39,-404.28"/>
</g>
<!-- src/hooks/imports.ts -->
<g id="node25" class="node">
<title>src/hooks/imports.ts</title>
<g id="a_node25"><a xlink:href="src/hooks/imports.ts" xlink:title="imports.ts">
<path fill="#ddfeff" stroke="black" d="M576.58,-653.88C576.58,-653.88 533.42,-653.88 533.42,-653.88 530.46,-653.88 527.5,-650.92 527.5,-647.96 527.5,-647.96 527.5,-642.04 527.5,-642.04 527.5,-639.08 530.46,-636.12 533.42,-636.12 533.42,-636.12 576.58,-636.12 576.58,-636.12 579.54,-636.12 582.5,-639.08 582.5,-642.04 582.5,-642.04 582.5,-647.96 582.5,-647.96 582.5,-650.92 579.54,-653.88 576.58,-653.88"/>
<text text-anchor="start" x="535.5" y="-641.33" font-family="Helvetica,sans-Serif" font-size="9.00">imports.ts</text>
</a>
</g>
</g>
<!-- src/hooks/useInitializeData.ts&#45;&gt;src/hooks/imports.ts -->
<g id="edge47" class="edge">
<title>src/hooks/useInitializeData.ts&#45;&gt;src/hooks/imports.ts</title>
<path fill="none" stroke="#000000" stroke-width="2" stroke-opacity="0.200000" d="M468.9,-645C485.17,-645 503.22,-645 518.5,-645"/>
<polygon fill="#000000" fill-opacity="0.200000" stroke="#000000" stroke-width="2" stroke-opacity="0.200000" points="518.11,-647.1 524.11,-645 518.11,-642.9 518.11,-647.1"/>
</g>
<!-- src/components/getTotalCost.ts&#45;&gt;src/atoms/OrderEntryAtom.tsx -->
<g id="edge43" class="edge">
<title>src/components/getTotalCost.ts&#45;&gt;src/atoms/OrderEntryAtom.tsx</title>
<path fill="none" stroke="#000000" stroke-width="2" stroke-opacity="0.200000" d="M593.26,-392.13C609.01,-389.7 626.04,-383.93 636.25,-371 651.59,-351.57 631.41,-179.32 646.48,-133.93"/>
<polygon fill="#000000" fill-opacity="0.200000" stroke="#000000" stroke-width="2" stroke-opacity="0.200000" points="648.24,-135.11 649.04,-128.8 644.48,-133.23 648.24,-135.11"/>
</g>
<!-- src/components/OrderTable.tsx -->
<g id="node19" class="node">
<title>src/components/OrderTable.tsx</title>
<g id="a_node19"><a xlink:href="src/components/OrderTable.tsx" xlink:title="OrderTable.tsx">
<path fill="#bbfeff" stroke="black" d="M336.33,-491.88C336.33,-491.88 272.92,-491.88 272.92,-491.88 269.96,-491.88 267,-488.92 267,-485.96 267,-485.96 267,-480.04 267,-480.04 267,-477.08 269.96,-474.12 272.92,-474.12 272.92,-474.12 336.33,-474.12 336.33,-474.12 339.29,-474.12 342.25,-477.08 342.25,-480.04 342.25,-480.04 342.25,-485.96 342.25,-485.96 342.25,-488.92 339.29,-491.88 336.33,-491.88"/>
<text text-anchor="start" x="275" y="-479.32" font-family="Helvetica,sans-Serif" font-size="9.00">OrderTable.tsx</text>
</a>
</g>
</g>
<!-- src/components/OrderTable.tsx&#45;&gt;src/atoms/OrderAtom.tsx -->
<g id="edge24" class="edge">
<title>src/components/OrderTable.tsx&#45;&gt;src/atoms/OrderAtom.tsx</title>
<path fill="none" stroke="#000000" stroke-width="2" stroke-opacity="0.200000" d="M342.48,-479.5C349.94,-477.21 357.14,-473.61 362.5,-468 381.36,-448.28 367.38,-434.05 375.5,-408 412.39,-289.6 389.88,-233.3 481.75,-150 527.26,-108.73 598.94,-94.47 645.37,-89.56"/>
<polygon fill="#000000" fill-opacity="0.200000" stroke="#000000" stroke-width="2" stroke-opacity="0.200000" points="645.52,-91.65 651.29,-88.98 645.11,-87.47 645.52,-91.65"/>
</g>
<!-- src/components/OrderTable.tsx&#45;&gt;src/http.ts -->
<g id="edge25" class="edge">
<title>src/components/OrderTable.tsx&#45;&gt;src/http.ts</title>
<path fill="none" stroke="#000000" stroke-width="2" stroke-opacity="0.200000" d="M342.6,-487.59C349.79,-489.83 356.85,-493.14 362.5,-498 373.52,-507.47 363.39,-519.97 375.5,-528 464.26,-586.87 599.98,-547.09 660.12,-524.54"/>
<polygon fill="#000000" fill-opacity="0.200000" stroke="#000000" stroke-width="2" stroke-opacity="0.200000" points="660.75,-526.55 665.6,-522.44 659.25,-522.63 660.75,-526.55"/>
</g>
<!-- src/components/PaperCards.tsx -->
<g id="node20" class="node">
<title>src/components/PaperCards.tsx</title>
<g id="a_node20"><a xlink:href="src/components/PaperCards.tsx" xlink:title="PaperCards.tsx">
<path fill="#bbfeff" stroke="black" d="M338.21,-431.88C338.21,-431.88 271.04,-431.88 271.04,-431.88 268.08,-431.88 265.12,-428.92 265.12,-425.96 265.12,-425.96 265.12,-420.04 265.12,-420.04 265.12,-417.08 268.08,-414.12 271.04,-414.12 271.04,-414.12 338.21,-414.12 338.21,-414.12 341.17,-414.12 344.12,-417.08 344.12,-420.04 344.12,-420.04 344.12,-425.96 344.12,-425.96 344.12,-428.92 341.17,-431.88 338.21,-431.88"/>
<text text-anchor="start" x="273.12" y="-419.32" font-family="Helvetica,sans-Serif" font-size="9.00">PaperCards.tsx</text>
</a>
</g>
</g>
<!-- src/components/PaperCards.tsx&#45;&gt;src/Api.ts -->
<g id="edge26" class="edge">
<title>src/components/PaperCards.tsx&#45;&gt;src/Api.ts</title>
<path fill="none" stroke="#000000" stroke-width="2" stroke-opacity="0.200000" d="M344.41,-419.78C351.39,-417.43 357.9,-413.74 362.5,-408 386.07,-378.59 353.71,-99.76 375.5,-69 448.16,33.57 736.7,-19.51 747,-27 774.38,-46.91 780.16,-89.34 781.12,-113.73"/>
<polygon fill="#000000" fill-opacity="0.200000" stroke="#000000" stroke-width="2" stroke-opacity="0.200000" points="779.01,-113.69 781.22,-119.65 783.21,-113.62 779.01,-113.69"/>
</g>
<!-- src/components/PaperCards.tsx&#45;&gt;src/atoms/OrderEntryAtom.tsx -->
<g id="edge27" class="edge">
<title>src/components/PaperCards.tsx&#45;&gt;src/atoms/OrderEntryAtom.tsx</title>
<path fill="none" stroke="#000000" stroke-width="2" stroke-opacity="0.200000" d="M344.4,-419.78C351.39,-417.43 357.9,-413.73 362.5,-408 385.46,-379.38 349.05,-103.43 375.5,-78 394,-60.22 552.23,-88.92 637.19,-105.91"/>
<polygon fill="#000000" fill-opacity="0.200000" stroke="#000000" stroke-width="2" stroke-opacity="0.200000" points="636.66,-107.94 642.96,-107.07 637.49,-103.82 636.66,-107.94"/>
</g>
<!-- src/components/PaperCards.tsx&#45;&gt;src/atoms/PaperAtom.tsx -->
<g id="edge28" class="edge">
<title>src/components/PaperCards.tsx&#45;&gt;src/atoms/PaperAtom.tsx</title>
<path fill="none" stroke="#000000" stroke-width="2" stroke-opacity="0.200000" d="M344.4,-419.77C351.38,-417.42 357.89,-413.73 362.5,-408 384.51,-380.61 350.15,-116.33 375.5,-92 405.4,-63.3 427.61,-86.98 468.75,-92 535.09,-100.1 610.16,-121.34 653.77,-134.93"/>
<polygon fill="#000000" fill-opacity="0.200000" stroke="#000000" stroke-width="2" stroke-opacity="0.200000" points="653.08,-136.92 659.43,-136.72 654.34,-132.91 653.08,-136.92"/>
</g>
<!-- src/components/ParentPaperProperty.tsx -->
<g id="node21" class="node">
<title>src/components/ParentPaperProperty.tsx</title>
<g id="a_node21"><a xlink:href="src/components/ParentPaperProperty.tsx" xlink:title="ParentPaperProperty.tsx">
<path fill="#bbfeff" stroke="black" d="M356.58,-521.88C356.58,-521.88 252.67,-521.88 252.67,-521.88 249.71,-521.88 246.75,-518.92 246.75,-515.96 246.75,-515.96 246.75,-510.04 246.75,-510.04 246.75,-507.08 249.71,-504.12 252.67,-504.12 252.67,-504.12 356.58,-504.12 356.58,-504.12 359.54,-504.12 362.5,-507.08 362.5,-510.04 362.5,-510.04 362.5,-515.96 362.5,-515.96 362.5,-518.92 359.54,-521.88 356.58,-521.88"/>
<text text-anchor="start" x="254.75" y="-509.32" font-family="Helvetica,sans-Serif" font-size="9.00">ParentPaperProperty.tsx</text>
</a>
</g>
</g>
<!-- src/components/ParentPaperProperty.tsx&#45;&gt;src/components/CreatePaper.tsx -->
<g id="edge29" class="edge">
<title>src/components/ParentPaperProperty.tsx&#45;&gt;src/components/CreatePaper.tsx</title>
<path fill="none" stroke="#000000" stroke-width="2" stroke-opacity="0.200000" d="M341.54,-503.67C352.62,-500.79 364.96,-497.59 376.55,-494.58"/>
<polygon fill="#000000" fill-opacity="0.200000" stroke="#000000" stroke-width="2" stroke-opacity="0.200000" points="377.03,-496.62 382.31,-493.08 375.97,-492.56 377.03,-496.62"/>
</g>
<!-- src/components/ParentPaperProperty.tsx&#45;&gt;src/components/CreateProperty.tsx -->
<g id="edge30" class="edge">
<title>src/components/ParentPaperProperty.tsx&#45;&gt;src/components/CreateProperty.tsx</title>
<path fill="none" stroke="#000000" stroke-width="2" stroke-opacity="0.200000" d="M354.09,-503.68C357.1,-502.08 359.94,-500.2 362.5,-498 373.52,-488.53 364.77,-477.8 375.5,-468 375.81,-467.72 376.12,-467.44 376.44,-467.17"/>
<polygon fill="#000000" fill-opacity="0.200000" stroke="#000000" stroke-width="2" stroke-opacity="0.200000" points="377.46,-469.02 381.25,-463.91 375.1,-465.54 377.46,-469.02"/>
</g>
<!-- src/components/ProductTable.tsx -->
<g id="node22" class="node">
<title>src/components/ProductTable.tsx</title>
<g id="a_node22"><a xlink:href="src/components/ProductTable.tsx" xlink:title="ProductTable.tsx">
<path fill="#bbfeff" stroke="black" d="M457.96,-521.88C457.96,-521.88 386.29,-521.88 386.29,-521.88 383.33,-521.88 380.38,-518.92 380.38,-515.96 380.38,-515.96 380.38,-510.04 380.38,-510.04 380.38,-507.08 383.33,-504.12 386.29,-504.12 386.29,-504.12 457.96,-504.12 457.96,-504.12 460.92,-504.12 463.88,-507.08 463.88,-510.04 463.88,-510.04 463.88,-515.96 463.88,-515.96 463.88,-518.92 460.92,-521.88 457.96,-521.88"/>
<text text-anchor="start" x="388.38" y="-509.32" font-family="Helvetica,sans-Serif" font-size="9.00">ProductTable.tsx</text>
</a>
</g>
</g>
<!-- src/components/ProductTable.tsx&#45;&gt;src/atoms/PaperAtom.tsx -->
<g id="edge31" class="edge">
<title>src/components/ProductTable.tsx&#45;&gt;src/atoms/PaperAtom.tsx</title>
<path fill="none" stroke="#000000" stroke-width="2" stroke-opacity="0.200000" d="M462.66,-503.8C464.96,-502.17 467.03,-500.25 468.75,-498 501.75,-454.88 446.1,-294.96 481.75,-254 527.67,-201.23 588.38,-275.01 636.25,-224 655.26,-203.74 626.5,-183.37 644.25,-162 644.98,-161.12 645.76,-160.29 646.59,-159.51"/>
<polygon fill="#000000" fill-opacity="0.200000" stroke="#000000" stroke-width="2" stroke-opacity="0.200000" points="647.56,-161.4 651.21,-156.19 645.11,-157.99 647.56,-161.4"/>
</g>
<!-- src/components/ProductTable.tsx&#45;&gt;src/atoms/PropertyAtom.tsx -->
<g id="edge32" class="edge">
<title>src/components/ProductTable.tsx&#45;&gt;src/atoms/PropertyAtom.tsx</title>
<path fill="none" stroke="#000000" stroke-width="2" stroke-opacity="0.200000" d="M462.64,-503.79C464.94,-502.16 467.02,-500.25 468.75,-498 497.97,-460.09 451.88,-320.4 481.75,-283 526.38,-227.11 588.76,-291.47 636.25,-238 648.93,-223.72 634.2,-209.79 643.57,-192.89"/>
<polygon fill="#000000" fill-opacity="0.200000" stroke="#000000" stroke-width="2" stroke-opacity="0.200000" points="645,-194.5 646.89,-188.43 641.63,-191.99 645,-194.5"/>
</g>
<!-- src/components/ProductTable.tsx&#45;&gt;src/http.ts -->
<g id="edge33" class="edge">
<title>src/components/ProductTable.tsx&#45;&gt;src/http.ts</title>
<path fill="none" stroke="#000000" stroke-width="2" stroke-opacity="0.200000" d="M464.33,-520.93C470.16,-521.79 476.09,-522.52 481.75,-523 550.17,-528.79 567.93,-529.84 636.25,-523 642.58,-522.37 649.25,-521.33 655.68,-520.14"/>
<polygon fill="#000000" fill-opacity="0.200000" stroke="#000000" stroke-width="2" stroke-opacity="0.200000" points="655.79,-522.26 661.27,-519.03 654.97,-518.14 655.79,-522.26"/>
</g>
<!-- src/components/ProductTable.tsx&#45;&gt;src/components/ProductModal.tsx -->
<g id="edge34" class="edge">
<title>src/components/ProductTable.tsx&#45;&gt;src/components/ProductModal.tsx</title>
<path fill="none" stroke="#000000" stroke-width="2" stroke-opacity="0.200000" d="M460.49,-503.79C463.48,-502.16 466.29,-500.25 468.75,-498 479.48,-488.2 470.48,-477.17 481.75,-468 487.88,-463.01 495.25,-459.55 502.91,-457.18"/>
<polygon fill="#000000" fill-opacity="0.200000" stroke="#000000" stroke-width="2" stroke-opacity="0.200000" points="503.07,-459.31 508.35,-455.77 502.02,-455.24 503.07,-459.31"/>
</g>
<!-- src/components/PropertiesModificationModal.tsx -->
<g id="node23" class="node">
<title>src/components/PropertiesModificationModal.tsx</title>
<g id="a_node23"><a xlink:href="src/components/PropertiesModificationModal.tsx" xlink:title="PropertiesModificationModal.tsx">
<path fill="#bbfeff" stroke="black" d="M622.33,-491.88C622.33,-491.88 487.67,-491.88 487.67,-491.88 484.71,-491.88 481.75,-488.92 481.75,-485.96 481.75,-485.96 481.75,-480.04 481.75,-480.04 481.75,-477.08 484.71,-474.12 487.67,-474.12 487.67,-474.12 622.33,-474.12 622.33,-474.12 625.29,-474.12 628.25,-477.08 628.25,-480.04 628.25,-480.04 628.25,-485.96 628.25,-485.96 628.25,-488.92 625.29,-491.88 622.33,-491.88"/>
<text text-anchor="start" x="489.75" y="-479.32" font-family="Helvetica,sans-Serif" font-size="9.00">PropertiesModificationModal.tsx</text>
</a>
</g>
</g>
<!-- src/components/ProductTable.tsx&#45;&gt;src/components/PropertiesModificationModal.tsx -->
<g id="edge35" class="edge">
<title>src/components/ProductTable.tsx&#45;&gt;src/components/PropertiesModificationModal.tsx</title>
<path fill="none" stroke="#000000" stroke-width="2" stroke-opacity="0.200000" d="M453.09,-503.66C462.24,-500.98 472.36,-498.2 481.75,-496 484.39,-495.38 487.1,-494.77 489.84,-494.18"/>
<polygon fill="#000000" fill-opacity="0.200000" stroke="#000000" stroke-width="2" stroke-opacity="0.200000" points="490.24,-496.24 495.69,-492.96 489.39,-492.13 490.24,-496.24"/>
</g>
<!-- src/components/PropertiesModificationModal.tsx&#45;&gt;src/Api.ts -->
<g id="edge36" class="edge">
<title>src/components/PropertiesModificationModal.tsx&#45;&gt;src/Api.ts</title>
<path fill="none" stroke="#000000" stroke-width="2" stroke-opacity="0.200000" d="M627.29,-473.74C630.45,-472.08 633.46,-470.18 636.25,-468 742.9,-384.55 772.31,-207.06 779.16,-150.04"/>
<polygon fill="#000000" fill-opacity="0.200000" stroke="#000000" stroke-width="2" stroke-opacity="0.200000" points="781.24,-150.32 779.82,-144.13 777.07,-149.85 781.24,-150.32"/>
</g>
<!-- src/components/PropertiesModificationModal.tsx&#45;&gt;src/http.ts -->
<g id="edge37" class="edge">
<title>src/components/PropertiesModificationModal.tsx&#45;&gt;src/http.ts</title>
<path fill="none" stroke="#000000" stroke-width="2" stroke-opacity="0.200000" d="M618.36,-492.31C624.43,-493.45 630.47,-494.69 636.25,-496 642.58,-497.44 649.27,-499.2 655.69,-501.02"/>
<polygon fill="#000000" fill-opacity="0.200000" stroke="#000000" stroke-width="2" stroke-opacity="0.200000" points="655,-503 661.34,-502.67 656.17,-498.97 655,-503"/>
</g>
<!-- src/components/ShoppingCartPage.tsx -->
<g id="node24" class="node">
<title>src/components/ShoppingCartPage.tsx</title>
<g id="a_node24"><a xlink:href="src/components/ShoppingCartPage.tsx" xlink:title="ShoppingCartPage.tsx">
<path fill="#bbfeff" stroke="black" d="M352.83,-461.88C352.83,-461.88 256.42,-461.88 256.42,-461.88 253.46,-461.88 250.5,-458.92 250.5,-455.96 250.5,-455.96 250.5,-450.04 250.5,-450.04 250.5,-447.08 253.46,-444.12 256.42,-444.12 256.42,-444.12 352.83,-444.12 352.83,-444.12 355.79,-444.12 358.75,-447.08 358.75,-450.04 358.75,-450.04 358.75,-455.96 358.75,-455.96 358.75,-458.92 355.79,-461.88 352.83,-461.88"/>
<text text-anchor="start" x="258.5" y="-449.32" font-family="Helvetica,sans-Serif" font-size="9.00">ShoppingCartPage.tsx</text>
</a>
</g>
</g>
<!-- src/components/ShoppingCartPage.tsx&#45;&gt;src/Api.ts -->
<g id="edge38" class="edge">
<title>src/components/ShoppingCartPage.tsx&#45;&gt;src/Api.ts</title>
<path fill="none" stroke="#000000" stroke-width="2" stroke-opacity="0.200000" d="M356.33,-443.79C358.62,-442.14 360.7,-440.22 362.5,-438 381.87,-414.04 364.14,-189.64 375.5,-161 382.19,-144.13 465.27,-44.58 481.75,-37 508.52,-24.68 722.9,-20.03 747,-37 771.7,-54.4 778.55,-91.47 780.39,-113.82"/>
<polygon fill="#000000" fill-opacity="0.200000" stroke="#000000" stroke-width="2" stroke-opacity="0.200000" points="778.29,-113.77 780.74,-119.63 782.48,-113.52 778.29,-113.77"/>
</g>
<!-- src/components/ShoppingCartPage.tsx&#45;&gt;src/atoms/OrderEntryAtom.tsx -->
<g id="edge39" class="edge">
<title>src/components/ShoppingCartPage.tsx&#45;&gt;src/atoms/OrderEntryAtom.tsx</title>
<path fill="none" stroke="#000000" stroke-width="2" stroke-opacity="0.200000" d="M356.34,-443.8C358.63,-442.15 360.71,-440.23 362.5,-438 383.7,-411.67 351.73,-158.04 375.5,-134 380,-129.45 545.78,-122.49 635.03,-119.06"/>
<polygon fill="#000000" fill-opacity="0.200000" stroke="#000000" stroke-width="2" stroke-opacity="0.200000" points="635,-121.16 640.92,-118.83 634.84,-116.96 635,-121.16"/>
</g>
<!-- src/components/ShoppingCartPage.tsx&#45;&gt;src/http.ts -->
<g id="edge41" class="edge">
<title>src/components/ShoppingCartPage.tsx&#45;&gt;src/http.ts</title>
<path fill="none" stroke="#000000" stroke-width="2" stroke-opacity="0.200000" d="M355.27,-443.63C357.89,-442.03 360.33,-440.16 362.5,-438 378.44,-422.08 364.25,-408.52 375.5,-389 408.81,-331.21 420.11,-308.49 481.75,-283 545.21,-256.76 582.38,-240.42 636.25,-283 669.62,-309.37 684.67,-444.26 689.13,-493.76"/>
<polygon fill="#000000" fill-opacity="0.200000" stroke="#000000" stroke-width="2" stroke-opacity="0.200000" points="687.04,-493.9 689.65,-499.69 691.22,-493.54 687.04,-493.9"/>
</g>
<!-- src/components/ShoppingCartPage.tsx&#45;&gt;src/components/Navbar.tsx -->
<g id="edge40" class="edge">
<title>src/components/ShoppingCartPage.tsx&#45;&gt;src/components/Navbar.tsx</title>
<path fill="none" stroke="#000000" stroke-width="2" stroke-opacity="0.200000" d="M341.54,-443.67C354.9,-440.2 370.09,-436.26 383.6,-432.75"/>
<polygon fill="#000000" fill-opacity="0.200000" stroke="#000000" stroke-width="2" stroke-opacity="0.200000" points="383.98,-434.82 389.26,-431.28 382.93,-430.75 383.98,-434.82"/>
</g>
<!-- src/components/ShoppingCartPage.tsx&#45;&gt;src/components/getTotalCost.ts -->
<g id="edge42" class="edge">
<title>src/components/ShoppingCartPage.tsx&#45;&gt;src/components/getTotalCost.ts</title>
<path fill="none" stroke="#000000" stroke-width="2" stroke-opacity="0.200000" d="M354.09,-443.68C357.1,-442.08 359.94,-440.2 362.5,-438 373.52,-428.53 363.7,-416.48 375.5,-408 395.98,-393.29 462.16,-391.2 507.91,-391.64"/>
<polygon fill="#000000" fill-opacity="0.200000" stroke="#000000" stroke-width="2" stroke-opacity="0.200000" points="507.71,-393.74 513.74,-391.72 507.77,-389.54 507.71,-393.74"/>
</g>
<!-- src/hooks/imports.ts&#45;&gt;src/atoms/index.ts -->
<g id="edge44" class="edge">
<title>src/hooks/imports.ts&#45;&gt;src/atoms/index.ts</title>
<path fill="none" stroke="#000000" stroke-width="2" stroke-opacity="0.200000" d="M543.73,-635.66C525.2,-619.49 488.97,-584.19 475.25,-545 470.55,-531.58 471.24,-302.65 475.25,-289 488.23,-244.82 522.36,-201.49 541.5,-179.64"/>
<polygon fill="#000000" fill-opacity="0.200000" stroke="#000000" stroke-width="2" stroke-opacity="0.200000" points="547.14,-176.45 541.59,-179.54 544.01,-173.66 547.14,-176.45"/>
</g>
<!-- src/hooks/imports.ts&#45;&gt;src/http.ts -->
<g id="edge45" class="edge">
<title>src/hooks/imports.ts&#45;&gt;src/http.ts</title>
<path fill="none" stroke="#000000" stroke-width="2" stroke-opacity="0.200000" d="M565.25,-635.86C588.31,-613.08 648.45,-553.66 676.21,-526.24"/>
<polygon fill="#000000" fill-opacity="0.200000" stroke="#000000" stroke-width="2" stroke-opacity="0.200000" points="682.07,-523.4 676.33,-526.13 679.12,-520.41 682.07,-523.4"/>
</g>
<!-- src/hooks/index.ts -->
<g id="node26" class="node">
<title>src/hooks/index.ts</title>
<g id="a_node26"><a xlink:href="src/hooks/index.ts" xlink:title="index.ts">
<path fill="#ddfeff" stroke="black" d="M325.71,-653.88C325.71,-653.88 283.54,-653.88 283.54,-653.88 280.58,-653.88 277.62,-650.92 277.62,-647.96 277.62,-647.96 277.62,-642.04 277.62,-642.04 277.62,-639.08 280.58,-636.12 283.54,-636.12 283.54,-636.12 325.71,-636.12 325.71,-636.12 328.67,-636.12 331.62,-639.08 331.62,-642.04 331.62,-642.04 331.62,-647.96 331.62,-647.96 331.62,-650.92 328.67,-653.88 325.71,-653.88"/>
<text text-anchor="start" x="288.88" y="-641.33" font-family="Helvetica,sans-Serif" font-size="9.00">index.ts</text>
</a>
</g>
</g>
<!-- src/hooks/index.ts&#45;&gt;src/hooks/useInitializeData.ts -->
<g id="edge46" class="edge">
<title>src/hooks/index.ts&#45;&gt;src/hooks/useInitializeData.ts</title>
<path fill="none" stroke="#000000" stroke-width="2" stroke-opacity="0.200000" d="M332.12,-645C342.91,-645 355.78,-645 368.34,-645"/>
<polygon fill="#000000" fill-opacity="0.200000" stroke="#000000" stroke-width="2" stroke-opacity="0.200000" points="374.27,-647.1 368.27,-645 374.27,-642.9 374.27,-647.1"/>
</g>
<!-- src/main.tsx -->
<g id="node27" class="node">
<title>src/main.tsx</title>
<g id="a_node27"><a xlink:href="src/main.tsx" xlink:title="main.tsx">
<path fill="#bbfeff" stroke="black" d="M64.08,-552.88C64.08,-552.88 21.92,-552.88 21.92,-552.88 18.96,-552.88 16,-549.92 16,-546.96 16,-546.96 16,-541.04 16,-541.04 16,-538.08 18.96,-535.12 21.92,-535.12 21.92,-535.12 64.08,-535.12 64.08,-535.12 67.04,-535.12 70,-538.08 70,-541.04 70,-541.04 70,-546.96 70,-546.96 70,-549.92 67.04,-552.88 64.08,-552.88"/>
<text text-anchor="start" x="26.12" y="-540.33" font-family="Helvetica,sans-Serif" font-size="9.00">main.tsx</text>
</a>
</g>
</g>
<!-- src/pages/CustomerPage.tsx -->
<g id="node28" class="node">
<title>src/pages/CustomerPage.tsx</title>
<g id="a_node28"><a xlink:href="src/pages/CustomerPage.tsx" xlink:title="CustomerPage.tsx">
<path fill="#bbfeff" stroke="black" d="M193.96,-447.88C193.96,-447.88 114.79,-447.88 114.79,-447.88 111.83,-447.88 108.88,-444.92 108.88,-441.96 108.88,-441.96 108.88,-436.04 108.88,-436.04 108.88,-433.08 111.83,-430.12 114.79,-430.12 114.79,-430.12 193.96,-430.12 193.96,-430.12 196.92,-430.12 199.88,-433.08 199.88,-436.04 199.88,-436.04 199.88,-441.96 199.88,-441.96 199.88,-444.92 196.92,-447.88 193.96,-447.88"/>
<text text-anchor="start" x="116.88" y="-435.32" font-family="Helvetica,sans-Serif" font-size="9.00">CustomerPage.tsx</text>
</a>
</g>
</g>
<!-- src/main.tsx&#45;&gt;src/pages/CustomerPage.tsx -->
<g id="edge49" class="edge">
<title>src/main.tsx&#45;&gt;src/pages/CustomerPage.tsx</title>
<path fill="none" stroke="#000000" stroke-width="2" stroke-opacity="0.200000" d="M44.64,-534.69C46.43,-516.25 53.15,-475.06 78,-454 84.28,-448.68 91.91,-445.05 99.87,-442.61"/>
<polygon fill="#000000" fill-opacity="0.200000" stroke="#000000" stroke-width="2" stroke-opacity="0.200000" points="100.36,-444.65 105.66,-441.14 99.33,-440.58 100.36,-444.65"/>
</g>
<!-- src/pages/HomePage.tsx -->
<g id="node29" class="node">
<title>src/pages/HomePage.tsx</title>
<g id="a_node29"><a xlink:href="src/pages/HomePage.tsx" xlink:title="HomePage.tsx">
<path fill="#bbfeff" stroke="black" d="M186.46,-597.88C186.46,-597.88 122.29,-597.88 122.29,-597.88 119.33,-597.88 116.38,-594.92 116.38,-591.96 116.38,-591.96 116.38,-586.04 116.38,-586.04 116.38,-583.08 119.33,-580.12 122.29,-580.12 122.29,-580.12 186.46,-580.12 186.46,-580.12 189.42,-580.12 192.38,-583.08 192.38,-586.04 192.38,-586.04 192.38,-591.96 192.38,-591.96 192.38,-594.92 189.42,-597.88 186.46,-597.88"/>
<text text-anchor="start" x="124.38" y="-585.33" font-family="Helvetica,sans-Serif" font-size="9.00">HomePage.tsx</text>
</a>
</g>
</g>
<!-- src/main.tsx&#45;&gt;src/pages/HomePage.tsx -->
<g id="edge50" class="edge">
<title>src/main.tsx&#45;&gt;src/pages/HomePage.tsx</title>
<path fill="none" stroke="#000000" stroke-width="2" stroke-opacity="0.200000" d="M52,-553.31C58.35,-560.11 67.84,-568.97 78,-574 87.06,-578.49 97.37,-581.63 107.38,-583.84"/>
<polygon fill="#000000" fill-opacity="0.200000" stroke="#000000" stroke-width="2" stroke-opacity="0.200000" points="106.81,-585.86 113.1,-584.96 107.62,-581.74 106.81,-585.86"/>
</g>
<!-- src/pages/NotFoundPage.tsx -->
<g id="node30" class="node">
<title>src/pages/NotFoundPage.tsx</title>
<g id="a_node30"><a xlink:href="src/pages/NotFoundPage.tsx" xlink:title="NotFoundPage.tsx">
<path fill="#bbfeff" stroke="black" d="M194.33,-627.88C194.33,-627.88 114.42,-627.88 114.42,-627.88 111.46,-627.88 108.5,-624.92 108.5,-621.96 108.5,-621.96 108.5,-616.04 108.5,-616.04 108.5,-613.08 111.46,-610.12 114.42,-610.12 114.42,-610.12 194.33,-610.12 194.33,-610.12 197.29,-610.12 200.25,-613.08 200.25,-616.04 200.25,-616.04 200.25,-621.96 200.25,-621.96 200.25,-624.92 197.29,-627.88 194.33,-627.88"/>
<text text-anchor="start" x="116.5" y="-615.33" font-family="Helvetica,sans-Serif" font-size="9.00">NotFoundPage.tsx</text>
</a>
</g>
</g>
<!-- src/main.tsx&#45;&gt;src/pages/NotFoundPage.tsx -->
<g id="edge51" class="edge">
<title>src/main.tsx&#45;&gt;src/pages/NotFoundPage.tsx</title>
<path fill="none" stroke="#000000" stroke-width="2" stroke-opacity="0.200000" d="M46.45,-552.94C50.61,-566.29 60.34,-591.24 78,-604 84.43,-608.65 91.95,-611.95 99.69,-614.27"/>
<polygon fill="#000000" fill-opacity="0.200000" stroke="#000000" stroke-width="2" stroke-opacity="0.200000" points="98.88,-616.23 105.21,-615.68 99.92,-612.16 98.88,-616.23"/>
</g>
<!-- src/pages/OrderHistoryPage.tsx -->
<g id="node31" class="node">
<title>src/pages/OrderHistoryPage.tsx</title>
<g id="a_node31"><a xlink:href="src/pages/OrderHistoryPage.tsx" xlink:title="OrderHistoryPage.tsx">
<path fill="#bbfeff" stroke="black" d="M199.96,-537.88C199.96,-537.88 108.79,-537.88 108.79,-537.88 105.83,-537.88 102.88,-534.92 102.88,-531.96 102.88,-531.96 102.88,-526.04 102.88,-526.04 102.88,-523.08 105.83,-520.12 108.79,-520.12 108.79,-520.12 199.96,-520.12 199.96,-520.12 202.92,-520.12 205.88,-523.08 205.88,-526.04 205.88,-526.04 205.88,-531.96 205.88,-531.96 205.88,-534.92 202.92,-537.88 199.96,-537.88"/>
<text text-anchor="start" x="110.88" y="-525.33" font-family="Helvetica,sans-Serif" font-size="9.00">OrderHistoryPage.tsx</text>
</a>
</g>
</g>
<!-- src/main.tsx&#45;&gt;src/pages/OrderHistoryPage.tsx -->
<g id="edge52" class="edge">
<title>src/main.tsx&#45;&gt;src/pages/OrderHistoryPage.tsx</title>
<path fill="none" stroke="#000000" stroke-width="2" stroke-opacity="0.200000" d="M70.48,-540.37C77.63,-539.39 85.66,-538.29 93.84,-537.16"/>
<polygon fill="#000000" fill-opacity="0.200000" stroke="#000000" stroke-width="2" stroke-opacity="0.200000" points="94.09,-539.25 99.75,-536.35 93.52,-535.09 94.09,-539.25"/>
</g>
<!-- src/pages/ProductCatalog.tsx -->
<g id="node32" class="node">
<title>src/pages/ProductCatalog.tsx</title>
<g id="a_node32"><a xlink:href="src/pages/ProductCatalog.tsx" xlink:title="ProductCatalog.tsx">
<path fill="#bbfeff" stroke="black" d="M195.08,-477.88C195.08,-477.88 113.67,-477.88 113.67,-477.88 110.71,-477.88 107.75,-474.92 107.75,-471.96 107.75,-471.96 107.75,-466.04 107.75,-466.04 107.75,-463.08 110.71,-460.12 113.67,-460.12 113.67,-460.12 195.08,-460.12 195.08,-460.12 198.04,-460.12 201,-463.08 201,-466.04 201,-466.04 201,-471.96 201,-471.96 201,-474.92 198.04,-477.88 195.08,-477.88"/>
<text text-anchor="start" x="115.75" y="-465.32" font-family="Helvetica,sans-Serif" font-size="9.00">ProductCatalog.tsx</text>
</a>
</g>
</g>
<!-- src/main.tsx&#45;&gt;src/pages/ProductCatalog.tsx -->
<g id="edge53" class="edge">
<title>src/main.tsx&#45;&gt;src/pages/ProductCatalog.tsx</title>
<path fill="none" stroke="#000000" stroke-width="2" stroke-opacity="0.200000" d="M46.45,-535.06C50.61,-521.71 60.34,-496.76 78,-484 84.14,-479.56 91.26,-476.35 98.63,-474.05"/>
<polygon fill="#000000" fill-opacity="0.200000" stroke="#000000" stroke-width="2" stroke-opacity="0.200000" points="99.17,-476.08 104.43,-472.52 98.09,-472.02 99.17,-476.08"/>
</g>
<!-- src/pages/ProductManagementPage.tsx -->
<g id="node33" class="node">
<title>src/pages/ProductManagementPage.tsx</title>
<g id="a_node33"><a xlink:href="src/pages/ProductManagementPage.tsx" xlink:title="ProductManagementPage.tsx">
<path fill="#bbfeff" stroke="black" d="M216.83,-567.88C216.83,-567.88 91.92,-567.88 91.92,-567.88 88.96,-567.88 86,-564.92 86,-561.96 86,-561.96 86,-556.04 86,-556.04 86,-553.08 88.96,-550.12 91.92,-550.12 91.92,-550.12 216.83,-550.12 216.83,-550.12 219.79,-550.12 222.75,-553.08 222.75,-556.04 222.75,-556.04 222.75,-561.96 222.75,-561.96 222.75,-564.92 219.79,-567.88 216.83,-567.88"/>
<text text-anchor="start" x="94" y="-555.33" font-family="Helvetica,sans-Serif" font-size="9.00">ProductManagementPage.tsx</text>
</a>
</g>
</g>
<!-- src/main.tsx&#45;&gt;src/pages/ProductManagementPage.tsx -->
<g id="edge54" class="edge">
<title>src/main.tsx&#45;&gt;src/pages/ProductManagementPage.tsx</title>
<path fill="none" stroke="#000000" stroke-width="2" stroke-opacity="0.200000" d="M70.48,-547.63C72.58,-547.92 74.76,-548.22 76.99,-548.52"/>
<polygon fill="#000000" fill-opacity="0.200000" stroke="#000000" stroke-width="2" stroke-opacity="0.200000" points="76.64,-550.6 82.87,-549.33 77.21,-546.43 76.64,-550.6"/>
</g>
<!-- src/pages/ShoppingCart.tsx -->
<g id="node34" class="node">
<title>src/pages/ShoppingCart.tsx</title>
<g id="a_node34"><a xlink:href="src/pages/ShoppingCart.tsx" xlink:title="ShoppingCart.tsx">
<path fill="#bbfeff" stroke="black" d="M191.71,-507.88C191.71,-507.88 117.04,-507.88 117.04,-507.88 114.08,-507.88 111.12,-504.92 111.12,-501.96 111.12,-501.96 111.12,-496.04 111.12,-496.04 111.12,-493.08 114.08,-490.12 117.04,-490.12 117.04,-490.12 191.71,-490.12 191.71,-490.12 194.67,-490.12 197.62,-493.08 197.62,-496.04 197.62,-496.04 197.62,-501.96 197.62,-501.96 197.62,-504.92 194.67,-507.88 191.71,-507.88"/>
<text text-anchor="start" x="119.12" y="-495.32" font-family="Helvetica,sans-Serif" font-size="9.00">ShoppingCart.tsx</text>
</a>
</g>
</g>
<!-- src/main.tsx&#45;&gt;src/pages/ShoppingCart.tsx -->
<g id="edge55" class="edge">
<title>src/main.tsx&#45;&gt;src/pages/ShoppingCart.tsx</title>
<path fill="none" stroke="#000000" stroke-width="2" stroke-opacity="0.200000" d="M52,-534.69C58.35,-527.89 67.84,-519.03 78,-514 85.54,-510.27 93.95,-507.46 102.33,-505.35"/>
<polygon fill="#000000" fill-opacity="0.200000" stroke="#000000" stroke-width="2" stroke-opacity="0.200000" points="102.67,-507.43 108.06,-504.07 101.75,-503.33 102.67,-507.43"/>
</g>
<!-- src/styles.css -->
<g id="node35" class="node">
<title>src/styles.css</title>
<g id="a_node35"><a xlink:href="src/styles.css" xlink:title="styles.css">
<path fill="#ffffcc" stroke="black" d="M175.96,-679.88C175.96,-679.88 132.79,-679.88 132.79,-679.88 129.83,-679.88 126.88,-676.92 126.88,-673.96 126.88,-673.96 126.88,-668.04 126.88,-668.04 126.88,-665.08 129.83,-662.12 132.79,-662.12 132.79,-662.12 175.96,-662.12 175.96,-662.12 178.92,-662.12 181.88,-665.08 181.88,-668.04 181.88,-668.04 181.88,-673.96 181.88,-673.96 181.88,-676.92 178.92,-679.88 175.96,-679.88"/>
<text text-anchor="start" x="134.88" y="-667.33" font-family="Helvetica,sans-Serif" font-size="9.00">styles.css</text>
</a>
</g>
</g>
<!-- src/main.tsx&#45;&gt;src/styles.css -->
<g id="edge56" class="edge">
<title>src/main.tsx&#45;&gt;src/styles.css</title>
<path fill="none" stroke="#000000" stroke-width="2" stroke-opacity="0.200000" d="M43.79,-553.27C43.83,-574.99 47.19,-629.37 78,-657 88.73,-666.62 103.87,-670.61 117.76,-672.01"/>
<polygon fill="#000000" fill-opacity="0.200000" stroke="#000000" stroke-width="2" stroke-opacity="0.200000" points="117.52,-674.1 123.64,-672.39 117.79,-669.9 117.52,-674.1"/>
</g>
<!-- src/pages/CustomerPage.tsx&#45;&gt;src/components/CustomerTable.tsx -->
<g id="edge57" class="edge">
<title>src/pages/CustomerPage.tsx&#45;&gt;src/components/CustomerTable.tsx</title>
<path fill="none" stroke="#000000" stroke-width="2" stroke-opacity="0.200000" d="M178.11,-429.64C194.72,-423.03 217.89,-414.26 238.75,-408 242.76,-406.8 246.93,-405.63 251.15,-404.52"/>
<polygon fill="#000000" fill-opacity="0.200000" stroke="#000000" stroke-width="2" stroke-opacity="0.200000" points="251.57,-406.58 256.87,-403.07 250.54,-402.51 251.57,-406.58"/>
</g>
<!-- src/pages/CustomerPage.tsx&#45;&gt;src/components/Navbar.tsx -->
<g id="edge58" class="edge">
<title>src/pages/CustomerPage.tsx&#45;&gt;src/components/Navbar.tsx</title>
<path fill="none" stroke="#000000" stroke-width="2" stroke-opacity="0.200000" d="M200.31,-438.78C211.7,-440.96 222.91,-445.44 230.75,-454 241.92,-466.2 226.44,-516.95 238.75,-528 259.21,-546.37 341.71,-546 362.5,-528 393.05,-501.54 349.52,-468.96 375.5,-438 377.91,-435.13 380.89,-432.8 384.15,-430.92"/>
<polygon fill="#000000" fill-opacity="0.200000" stroke="#000000" stroke-width="2" stroke-opacity="0.200000" points="384.81,-432.92 389.41,-428.53 383.08,-429.1 384.81,-432.92"/>
</g>
<!-- src/pages/HomePage.tsx&#45;&gt;src/components/Navbar.tsx -->
<g id="edge59" class="edge">
<title>src/pages/HomePage.tsx&#45;&gt;src/components/Navbar.tsx</title>
<path fill="none" stroke="#000000" stroke-width="2" stroke-opacity="0.200000" d="M192.56,-594.94C245.43,-602.45 338.59,-611.95 362.5,-590 387.47,-567.07 354.47,-464.59 375.5,-438 377.83,-435.06 380.75,-432.69 383.98,-430.78"/>
<polygon fill="#000000" fill-opacity="0.200000" stroke="#000000" stroke-width="2" stroke-opacity="0.200000" points="384.63,-432.79 389.2,-428.37 382.87,-428.97 384.63,-432.79"/>
</g>
<!-- src/pages/OrderHistoryPage.tsx&#45;&gt;src/components/Navbar.tsx -->
<g id="edge60" class="edge">
<title>src/pages/OrderHistoryPage.tsx&#45;&gt;src/components/Navbar.tsx</title>
<path fill="none" stroke="#000000" stroke-width="2" stroke-opacity="0.200000" d="M206.06,-532.34C214.93,-534.73 223.6,-538.41 230.75,-544 237.33,-549.14 231.7,-556.53 238.75,-561 285.19,-590.47 321.62,-597.79 362.5,-561 382.93,-542.61 358.23,-459.39 375.5,-438 377.86,-435.08 380.8,-432.72 384.04,-430.82"/>
<polygon fill="#000000" fill-opacity="0.200000" stroke="#000000" stroke-width="2" stroke-opacity="0.200000" points="384.69,-432.83 389.27,-428.42 382.94,-429.01 384.69,-432.83"/>
</g>
<!-- src/pages/OrderHistoryPage.tsx&#45;&gt;src/components/OrderTable.tsx -->
<g id="edge61" class="edge">
<title>src/pages/OrderHistoryPage.tsx&#45;&gt;src/components/OrderTable.tsx</title>
<path fill="none" stroke="#000000" stroke-width="2" stroke-opacity="0.200000" d="M206.34,-525.41C215.09,-523.03 223.64,-519.42 230.75,-514 237.07,-509.18 232.5,-502.92 238.75,-498 244.49,-493.48 251.36,-490.27 258.44,-488.01"/>
<polygon fill="#000000" fill-opacity="0.200000" stroke="#000000" stroke-width="2" stroke-opacity="0.200000" points="258.63,-490.14 263.88,-486.55 257.54,-486.08 258.63,-490.14"/>
</g>
<!-- src/pages/ProductCatalog.tsx&#45;&gt;src/components/Navbar.tsx -->
<g id="edge62" class="edge">
<title>src/pages/ProductCatalog.tsx&#45;&gt;src/components/Navbar.tsx</title>
<path fill="none" stroke="#000000" stroke-width="2" stroke-opacity="0.200000" d="M201.28,-469.21C212.27,-471.46 223.03,-475.87 230.75,-484 247.76,-501.91 220.07,-522.84 238.75,-539 259.55,-556.99 341.85,-557.16 362.5,-539 396.48,-509.11 346.67,-472.89 375.5,-438 377.89,-435.11 380.85,-432.77 384.1,-430.88"/>
<polygon fill="#000000" fill-opacity="0.200000" stroke="#000000" stroke-width="2" stroke-opacity="0.200000" points="384.76,-432.89 389.35,-428.49 383.02,-429.06 384.76,-432.89"/>
</g>
<!-- src/pages/ProductCatalog.tsx&#45;&gt;src/components/PaperCards.tsx -->
<g id="edge63" class="edge">
<title>src/pages/ProductCatalog.tsx&#45;&gt;src/components/PaperCards.tsx</title>
<path fill="none" stroke="#000000" stroke-width="2" stroke-opacity="0.200000" d="M201.24,-466.66C211.72,-464.37 222.26,-460.48 230.75,-454 237.07,-449.18 232.5,-442.92 238.75,-438 243.87,-433.97 249.88,-430.98 256.14,-428.78"/>
<polygon fill="#000000" fill-opacity="0.200000" stroke="#000000" stroke-width="2" stroke-opacity="0.200000" points="256.71,-430.8 261.87,-427.09 255.52,-426.78 256.71,-430.8"/>
</g>
<!-- src/pages/ProductManagementPage.tsx&#45;&gt;src/components/Navbar.tsx -->
<g id="edge64" class="edge">
<title>src/pages/ProductManagementPage.tsx&#45;&gt;src/components/Navbar.tsx</title>
<path fill="none" stroke="#000000" stroke-width="2" stroke-opacity="0.200000" d="M207.94,-568.32C215.64,-570.02 223.44,-571.92 230.75,-574 234.4,-575.04 235.01,-576.32 238.75,-577 292.87,-586.81 321.84,-614.04 362.5,-577 385.44,-556.11 356.16,-462.26 375.5,-438 377.84,-435.07 380.77,-432.7 384,-430.79"/>
<polygon fill="#000000" fill-opacity="0.200000" stroke="#000000" stroke-width="2" stroke-opacity="0.200000" points="384.65,-432.8 389.23,-428.39 382.9,-428.99 384.65,-432.8"/>
</g>
<!-- src/pages/ProductManagementPage.tsx&#45;&gt;src/components/ParentPaperProperty.tsx -->
<g id="edge65" class="edge">
<title>src/pages/ProductManagementPage.tsx&#45;&gt;src/components/ParentPaperProperty.tsx</title>
<path fill="none" stroke="#000000" stroke-width="2" stroke-opacity="0.200000" d="M209.24,-549.69C216.53,-548.02 223.87,-546.12 230.75,-544 246.42,-539.17 263.3,-532.11 276.87,-525.95"/>
<polygon fill="#000000" fill-opacity="0.200000" stroke="#000000" stroke-width="2" stroke-opacity="0.200000" points="277.54,-527.95 282.1,-523.53 275.77,-524.14 277.54,-527.95"/>
</g>
<!-- src/pages/ProductManagementPage.tsx&#45;&gt;src/components/ProductTable.tsx -->
<g id="edge66" class="edge">
<title>src/pages/ProductManagementPage.tsx&#45;&gt;src/components/ProductTable.tsx</title>
<path fill="none" stroke="#000000" stroke-width="2" stroke-opacity="0.200000" d="M222.51,-568.34C225.43,-569.97 228.2,-571.85 230.75,-574 238.38,-580.45 230.53,-589.33 238.75,-595 284.04,-626.21 313.59,-620.16 362.5,-595 388.68,-581.53 405.77,-550.35 414.41,-530.56"/>
<polygon fill="#000000" fill-opacity="0.200000" stroke="#000000" stroke-width="2" stroke-opacity="0.200000" points="416.29,-531.51 416.63,-525.17 412.4,-529.91 416.29,-531.51"/>
</g>
<!-- src/pages/ShoppingCart.tsx&#45;&gt;src/components/Navbar.tsx -->
<g id="edge67" class="edge">
<title>src/pages/ShoppingCart.tsx&#45;&gt;src/components/Navbar.tsx</title>
<path fill="none" stroke="#000000" stroke-width="2" stroke-opacity="0.200000" d="M197.74,-499.01C209.77,-501.07 221.97,-505.42 230.75,-514 242.47,-525.46 225.96,-539.74 238.75,-550 260.2,-567.21 341.96,-568.29 362.5,-550 381.21,-533.34 359.66,-457.41 375.5,-438 377.87,-435.09 380.82,-432.74 384.07,-430.85"/>
<polygon fill="#000000" fill-opacity="0.200000" stroke="#000000" stroke-width="2" stroke-opacity="0.200000" points="384.73,-432.86 389.31,-428.45 382.98,-429.04 384.73,-432.86"/>
</g>
<!-- src/pages/ShoppingCart.tsx&#45;&gt;src/components/ShoppingCartPage.tsx -->
<g id="edge68" class="edge">
<title>src/pages/ShoppingCart.tsx&#45;&gt;src/components/ShoppingCartPage.tsx</title>
<path fill="none" stroke="#000000" stroke-width="2" stroke-opacity="0.200000" d="M198.09,-497.3C209.59,-495.12 221.42,-491.12 230.75,-484 237.07,-479.18 232.5,-472.92 238.75,-468 239.94,-467.07 241.17,-466.19 242.44,-465.36"/>
<polygon fill="#000000" fill-opacity="0.200000" stroke="#000000" stroke-width="2" stroke-opacity="0.200000" points="243.19,-467.35 247.46,-462.64 241.19,-463.66 243.19,-467.35"/>
</g>
</g>
</svg>
